<svg height="496pt" viewBox="0 0 496 496" width="496pt" xmlns="http://www.w3.org/2000/svg"><path d="m480 479.996094v-208h-64v-32h14.246094l12-48h-63.207032c-18.328124-46.4375-54.152343-82.847656-99.367187-101.976563 4.128906-2.207031 8.097656-4.824219 11.574219-8.300781 6.019531-6.019531 10.226562-13.433594 12.496094-22.027344.730468-2.75-.0625-5.6875-2.078126-7.695312-2.015624-2.015625-4.953124-2.824219-7.695312-2.078125-11.503906 3.03125-23.28125-.082031-31.535156-8.335938-8.257813-8.257812-11.371094-20.050781-8.335938-31.535156.726563-2.753906-.066406-5.691406-2.082031-7.699219-2.015625-2.015625-4.953125-2.816406-7.695313-2.078125-8.59375 2.273438-16 6.472657-22.023437 12.496094-19.007813 19.007813-19.007813 49.945313 0 68.960937 1.550781 1.550782 3.296875 2.78125 5 4.078126-50.375 17.625-90.554687 56.0625-110.335937 106.191406h-63.207032l12 48h14.246094v32h-64v208h-16v16h496v-16zm-48 0h-48v-80h48zm-64-96v96h-16v-128h80v-16h-80v-16h112v16h-16v16h16v128h-16v-96zm-80 96h-80v-96h80zm-96-112v112h-32v-128h176v128h-32v-112zm160-128v32h-208v-32zm-16 48v16h-176v-16zm0 32v16h-176v-16zm128-16h-112v-16h112zm-64-32h-32v-32h32zm-166.40625-247.925782c1.078125-1.082031 2.230469-2.074218 3.453125-2.984374.625 11.855468 5.519531 23.269531 14.058594 31.808593 8.535156 8.527344 19.941406 13.429688 31.804687 14.054688-.902344 1.222656-1.894531 2.375-2.980468 3.457031-12.769532 12.765625-33.5625 12.773438-46.335938 0-12.769531-12.777344-12.769531-33.570312 0-46.335938zm14.40625 72.160157c51.105469 12.613281 92.808594 47.933593 113.777344 95.765625h-227.554688c20.96875-47.832032 62.671875-83.152344 113.777344-95.765625zm-173.753906 111.765625h347.507812l-4 16h-339.507812zm21.753906 32h32v32h-32zm48 48v16h-80v16h80v16h-112v-16h16v-16h-16v-16zm-112 64h112v128h-16v-96h-80v96h-16zm80 128h-48v-80h48zm0 0"/></svg>