<svg id="Capa_1" enable-background="new 0 0 512 512" height="512" viewBox="0 0 512 512" width="512" xmlns="http://www.w3.org/2000/svg"><g><g><g><path d="m295.233 234.179c57.284 0 103.889-46.604 103.889-103.89 0-1.038-.015-2.072-.045-3.102-.123-4.138-3.538-7.388-7.714-7.271-4.138.123-7.393 3.576-7.271 7.714.026.883.039 1.77.039 2.659 0 49.018-39.879 88.898-88.897 88.898s-88.898-39.88-88.898-88.898 39.879-88.897 88.898-88.897c36.096 0 68.348 21.547 82.165 54.895 1.584 3.825 5.969 5.638 9.794 4.055 3.824-1.584 5.64-5.969 4.055-9.794-16.145-38.968-53.834-64.147-96.014-64.147-57.285 0-103.889 46.604-103.889 103.889-.001 57.285 46.604 103.889 103.888 103.889z"/><path d="m295.185 76.937c-4.14 0-7.496 3.355-7.496 7.496v27.755c0 10.384 8.447 18.831 18.831 18.831s18.831-8.447 18.831-18.831v-2.204c0-4.14-3.356-7.496-7.496-7.496s-7.496 3.355-7.496 7.496v2.204c0 2.117-1.723 3.84-3.84 3.84s-3.84-1.723-3.84-3.84v-27.755c.002-4.141-3.353-7.496-7.494-7.496z"/><path d="m248.469 122.617c-4.14 0-7.496 3.355-7.496 7.496v2.204c0 10.384 8.448 18.831 18.831 18.831 10.384 0 18.831-8.448 18.831-18.831v-47.884c0-4.14-3.356-7.496-7.496-7.496s-7.496 3.355-7.496 7.496v47.884c0 2.117-1.723 3.84-3.84 3.84s-3.84-1.723-3.84-3.84v-2.204c.002-4.14-3.354-7.496-7.494-7.496z"/><path d="m316.343 183.436c1.121.138 2.258.205 3.4.205 6.5 0 13.156-2.178 17.997-6.001 10.48-8.277 14.559-23.399 9.698-35.957-1.493-3.86-5.832-5.781-9.696-4.285-3.861 1.494-5.779 5.835-4.285 9.696 2.505 6.474.352 14.548-5.009 18.781-2.584 2.041-6.714 3.113-10.284 2.681-1.588-.194-3.755-.78-5.058-2.464-2.537-3.275-7.245-3.871-10.517-1.338-3.273 2.535-3.872 7.243-1.338 10.517 3.487 4.501 8.846 7.401 15.092 8.165z"/><path d="m286.905 152.635c2.07 3.585 6.654 4.814 10.239 2.744s4.814-6.654 2.744-10.24c-2.07-3.585-6.654-4.813-10.239-2.744-3.586 2.071-4.814 6.655-2.744 10.24z"/><path d="m315.897 142.396c-3.585 2.07-4.814 6.654-2.744 10.24 2.07 3.585 6.654 4.814 10.239 2.744s4.813-6.654 2.744-10.24-6.654-4.814-10.239-2.744z"/><path d="m106.474 62.363c25.595 11.379 29.356 35.364 29.497 36.341.501 3.72 3.676 6.496 7.429 6.496s6.928-2.777 7.429-6.496c.033-.247 3.624-24.838 29.498-36.341 2.706-1.203 4.451-3.887 4.451-6.85 0-2.962-1.744-5.646-4.451-6.85-25.595-11.378-29.356-35.363-29.498-36.34-.501-3.721-3.676-6.496-7.429-6.496s-6.928 2.776-7.429 6.496c-.033.247-3.624 24.838-29.497 36.34-2.706 1.204-4.451 3.887-4.451 6.85s1.744 5.646 4.451 6.85zm36.926-27.7c3.931 6.92 9.868 14.5 18.783 20.851-8.915 6.351-14.852 13.932-18.783 20.852-3.931-6.92-9.868-14.5-18.783-20.852 8.916-6.352 14.852-13.931 18.783-20.851z"/><path d="m508.917 317.111c-7.341-16.149-26.097-23.904-42.696-17.651-.072.026-19.386 7.989-19.386 7.989.583-4.829-.032-9.754-1.893-14.403-5.658-14.133-21.477-21.667-36.013-17.153-.143.045-97.202 36.657-97.202 36.657-.834-5.666-3.109-11.09-6.704-15.702-9.763-12.53-27.161-16.471-41.373-9.365l-78.405 39.203-29.626-6.69c-.195-.045-.392-.081-.591-.109-27.902-3.983-51.91 11.791-64.277 22.133v-22.353c0-7.733-6.291-14.024-14.025-14.024h-62.701c-7.734-.002-14.025 6.289-14.025 14.022v172.482c0 7.734 6.291 14.025 14.025 14.025h62.701c7.733 0 14.025-6.291 14.025-14.025v-11.086h31.845c16.321 0 33.091 3.781 49.309 7.437 16.933 3.817 34.194 7.709 51.78 7.709 13.25 0 26.684-2.21 40.3-8.324 17.017-7.641 71.01-38.224 123.226-67.799 46.014-26.063 89.477-50.681 105.711-58.576 16.612-8.078 23.638-27.579 15.995-44.397zm-198.996 12.143 103.644-39.103c7.069-2.085 14.711 1.602 17.459 8.465 1.445 3.611 1.384 7.563-.173 11.127-1.327 3.035-3.602 5.456-6.489 6.97l-107.532 44.336c-4.994 1.866-10.23 2.813-15.561 2.813h-35.304l29.744-17.66c6.57-3.9 11.549-9.906 14.212-16.948zm176.445 18.773c-16.657 8.101-60.318 32.83-106.542 59.013-51.916 29.405-105.6 59.812-121.978 67.167-27.128 12.183-54.095 6.103-82.642-.333-17.018-3.837-34.616-7.804-52.606-7.804h-31.847v-29.343c0-4.14-3.356-7.496-7.496-7.496s-7.496 3.355-7.496 7.496v54.455h-60.767v-170.549h60.768v80.703c0 4.14 3.356 7.496 7.496 7.496s7.496-3.356 7.496-7.496v-39.243c.831-.413 1.586-.977 2.218-1.675.274-.302 27.682-30.097 59.652-25.73l31.932 7.21c1.687.382 3.456.167 5.003-.607l80.799-40.399c7.845-3.923 17.452-1.748 22.843 5.171 3.261 4.184 4.567 9.574 3.583 14.786-.984 5.213-4.164 9.755-8.726 12.464l-91.12 54.102c-3.56 2.114-4.732 6.713-2.618 10.272 2.114 3.561 6.713 4.734 10.272 2.619l36.127-21.451h60.553c7.179 0 14.226-1.282 20.946-3.813.072-.026.144-.055.216-.085l149.172-61.503c9.214-3.414 19.594.906 23.664 9.863 4.254 9.359.345 20.213-8.902 24.71z"/><path d="m409.517 219.99c30.45 13.536 34.879 42.076 35.049 43.251.501 3.721 3.675 6.496 7.428 6.496s6.928-2.776 7.428-6.496c.04-.294 4.317-29.59 35.049-43.251 2.706-1.203 4.451-3.887 4.451-6.85s-1.744-5.646-4.451-6.85c-30.451-13.537-34.879-42.077-35.049-43.252-.501-3.72-3.675-6.496-7.428-6.496s-6.928 2.776-7.428 6.496c-.04.294-4.317 29.59-35.049 43.252-2.707 1.204-4.451 3.888-4.451 6.85s1.745 5.647 4.451 6.85zm42.478-33.649c4.659 8.775 12.127 18.745 24.01 26.8-11.883 8.055-19.351 18.023-24.01 26.798-4.66-8.775-12.128-18.743-24.01-26.798 11.881-8.056 19.35-18.025 24.01-26.8z"/></g></g></g></svg>