<svg width="53" height="80" viewBox="0 0 53 80" fill="none" xmlns="http://www.w3.org/2000/svg">
<g filter="url(#filter0_d)">
<path d="M10.3623 52.0771H8.18457V58H6.71973V52.0771H4.57129V50.8906H10.3623V52.0771ZM13.3506 58C13.2855 57.873 13.2383 57.7152 13.209 57.5264C12.8672 57.9072 12.4229 58.0977 11.876 58.0977C11.3584 58.0977 10.9287 57.9479 10.5869 57.6484C10.2484 57.349 10.0791 56.9714 10.0791 56.5156C10.0791 55.9557 10.2858 55.526 10.6992 55.2266C11.1159 54.9271 11.7165 54.7757 12.501 54.7725H13.1504V54.4697C13.1504 54.2256 13.0869 54.0303 12.96 53.8838C12.8363 53.7373 12.6393 53.6641 12.3691 53.6641C12.1315 53.6641 11.9443 53.721 11.8076 53.835C11.6742 53.9489 11.6074 54.1051 11.6074 54.3037H10.1963C10.1963 53.9977 10.2907 53.7145 10.4795 53.4541C10.6683 53.1937 10.9352 52.9902 11.2803 52.8438C11.6253 52.694 12.0127 52.6191 12.4424 52.6191C13.0934 52.6191 13.6094 52.7835 13.9902 53.1123C14.3743 53.4378 14.5664 53.8968 14.5664 54.4893V56.7793C14.5697 57.2806 14.6396 57.6598 14.7764 57.917V58H13.3506ZM12.1836 57.0186C12.3919 57.0186 12.584 56.973 12.7598 56.8818C12.9355 56.7874 13.0658 56.6621 13.1504 56.5059V55.5977H12.623C11.9167 55.5977 11.5407 55.8418 11.4951 56.3301L11.4902 56.4131C11.4902 56.5889 11.5521 56.7337 11.6758 56.8477C11.7995 56.9616 11.9688 57.0186 12.1836 57.0186ZM20.4111 55.4072C20.4111 56.2536 20.2305 56.9144 19.8691 57.3896C19.5078 57.8617 19.0033 58.0977 18.3555 58.0977C17.7826 58.0977 17.3252 57.8779 16.9834 57.4385L16.9199 58H15.6504V50.5H17.0615V53.1904C17.387 52.8096 17.8151 52.6191 18.3457 52.6191C18.9902 52.6191 19.4948 52.8568 19.8594 53.332C20.2272 53.804 20.4111 54.4697 20.4111 55.3291V55.4072ZM19 55.3047C19 54.7708 18.9154 54.3818 18.7461 54.1377C18.5768 53.8903 18.3245 53.7666 17.9893 53.7666C17.54 53.7666 17.2308 53.9505 17.0615 54.3184V56.4033C17.234 56.7744 17.5465 56.96 17.999 56.96C18.4548 56.96 18.7542 56.7354 18.8975 56.2861C18.9658 56.0713 19 55.7441 19 55.3047ZM24.4492 57.4629C24.1009 57.8861 23.6191 58.0977 23.0039 58.0977C22.4375 58.0977 22.0046 57.9349 21.7051 57.6094C21.4089 57.2839 21.2575 56.807 21.251 56.1787V52.7168H22.6621V56.1299C22.6621 56.68 22.9128 56.9551 23.4141 56.9551C23.8926 56.9551 24.2214 56.7891 24.4004 56.457V52.7168H25.8164V58H24.4883L24.4492 57.4629ZM28.1797 52.7168L28.2236 53.3271C28.6012 52.8551 29.1074 52.6191 29.7422 52.6191C30.3021 52.6191 30.7188 52.7835 30.9922 53.1123C31.2656 53.4411 31.4056 53.9326 31.4121 54.5869V58H30.001V54.6211C30.001 54.3216 29.9359 54.1051 29.8057 53.9717C29.6755 53.835 29.459 53.7666 29.1562 53.7666C28.7591 53.7666 28.4613 53.9359 28.2627 54.2744V58H26.8516V52.7168H28.1797ZM32.2812 55.3193C32.2812 54.5088 32.4733 53.8561 32.8574 53.3613C33.2448 52.8665 33.7656 52.6191 34.4199 52.6191C34.9993 52.6191 35.4502 52.8177 35.7725 53.2148L35.8311 52.7168H37.1104V57.8242C37.1104 58.2865 37.0046 58.6885 36.793 59.0303C36.5846 59.3721 36.29 59.6325 35.9092 59.8115C35.5283 59.9906 35.0824 60.0801 34.5713 60.0801C34.1839 60.0801 33.8063 60.002 33.4385 59.8457C33.0706 59.6927 32.7923 59.4941 32.6035 59.25L33.2285 58.3906C33.5801 58.7845 34.0065 58.9814 34.5078 58.9814C34.8822 58.9814 35.1735 58.8805 35.3818 58.6787C35.5902 58.4801 35.6943 58.1969 35.6943 57.8291V57.5459C35.3688 57.9137 34.9408 58.0977 34.4102 58.0977C33.7754 58.0977 33.2611 57.8503 32.8672 57.3555C32.4766 56.8574 32.2812 56.1982 32.2812 55.3779V55.3193ZM33.6924 55.4219C33.6924 55.9004 33.7884 56.2764 33.9805 56.5498C34.1725 56.82 34.4362 56.9551 34.7715 56.9551C35.2012 56.9551 35.5088 56.7939 35.6943 56.4717V54.25C35.5055 53.9277 35.2012 53.7666 34.7812 53.7666C34.4427 53.7666 34.1758 53.9049 33.9805 54.1816C33.7884 54.4583 33.6924 54.8717 33.6924 55.4219ZM41.2607 58C41.1956 57.873 41.1484 57.7152 41.1191 57.5264C40.7773 57.9072 40.333 58.0977 39.7861 58.0977C39.2686 58.0977 38.8389 57.9479 38.4971 57.6484C38.1585 57.349 37.9893 56.9714 37.9893 56.5156C37.9893 55.9557 38.196 55.526 38.6094 55.2266C39.026 54.9271 39.6266 54.7757 40.4111 54.7725H41.0605V54.4697C41.0605 54.2256 40.9971 54.0303 40.8701 53.8838C40.7464 53.7373 40.5495 53.6641 40.2793 53.6641C40.0417 53.6641 39.8545 53.721 39.7178 53.835C39.5843 53.9489 39.5176 54.1051 39.5176 54.3037H38.1064C38.1064 53.9977 38.2008 53.7145 38.3896 53.4541C38.5785 53.1937 38.8454 52.9902 39.1904 52.8438C39.5355 52.694 39.9229 52.6191 40.3525 52.6191C41.0036 52.6191 41.5195 52.7835 41.9004 53.1123C42.2845 53.4378 42.4766 53.8968 42.4766 54.4893V56.7793C42.4798 57.2806 42.5498 57.6598 42.6865 57.917V58H41.2607ZM40.0938 57.0186C40.3021 57.0186 40.4941 56.973 40.6699 56.8818C40.8457 56.7874 40.9759 56.6621 41.0605 56.5059V55.5977H40.5332C39.8268 55.5977 39.4508 55.8418 39.4053 56.3301L39.4004 56.4131C39.4004 56.5889 39.4622 56.7337 39.5859 56.8477C39.7096 56.9616 39.8789 57.0186 40.0938 57.0186ZM44.8594 52.7168L44.9033 53.3271C45.2809 52.8551 45.7871 52.6191 46.4219 52.6191C46.9818 52.6191 47.3984 52.7835 47.6719 53.1123C47.9453 53.4411 48.0853 53.9326 48.0918 54.5869V58H46.6807V54.6211C46.6807 54.3216 46.6156 54.1051 46.4854 53.9717C46.3551 53.835 46.1387 53.7666 45.8359 53.7666C45.4388 53.7666 45.141 53.9359 44.9424 54.2744V58H43.5312V52.7168H44.8594ZM16.5879 66.6064C16.5879 67.2705 16.4805 67.8483 16.2656 68.3398C16.0508 68.8281 15.7529 69.2204 15.3721 69.5166L16.5537 70.4443L15.6211 71.2695L14.1074 70.0537C13.9349 70.083 13.7559 70.0977 13.5703 70.0977C12.9811 70.0977 12.4554 69.9561 11.9932 69.6729C11.5309 69.3896 11.1729 68.986 10.9189 68.4619C10.665 67.9346 10.5365 67.3291 10.5332 66.6455V66.2939C10.5332 65.5941 10.6585 64.9788 10.9092 64.4482C11.1631 63.9144 11.5195 63.5059 11.9785 63.2227C12.4408 62.9362 12.9681 62.793 13.5605 62.793C14.153 62.793 14.6787 62.9362 15.1377 63.2227C15.5999 63.5059 15.9564 63.9144 16.207 64.4482C16.4609 64.9788 16.5879 65.5924 16.5879 66.2891V66.6064ZM15.1035 66.2842C15.1035 65.5387 14.9701 64.9723 14.7031 64.585C14.4362 64.1976 14.0553 64.0039 13.5605 64.0039C13.069 64.0039 12.6898 64.196 12.4229 64.5801C12.1559 64.9609 12.0208 65.5208 12.0176 66.2598V66.6064C12.0176 67.3324 12.151 67.8955 12.418 68.2959C12.6849 68.6963 13.069 68.8965 13.5703 68.8965C14.0618 68.8965 14.4395 68.7044 14.7031 68.3203C14.9668 67.9329 15.1003 67.3698 15.1035 66.6309V66.2842ZM20.7334 69.4629C20.3851 69.8861 19.9033 70.0977 19.2881 70.0977C18.7217 70.0977 18.2887 69.9349 17.9893 69.6094C17.693 69.2839 17.5417 68.807 17.5352 68.1787V64.7168H18.9463V68.1299C18.9463 68.68 19.1969 68.9551 19.6982 68.9551C20.1768 68.9551 20.5055 68.7891 20.6846 68.457V64.7168H22.1006V70H20.7725L20.7334 69.4629ZM26.1338 66.04C25.9417 66.014 25.7725 66.001 25.626 66.001C25.0921 66.001 24.7422 66.1816 24.5762 66.543V70H23.165V64.7168H24.498L24.5371 65.3467C24.8203 64.8617 25.2126 64.6191 25.7139 64.6191C25.8701 64.6191 26.0166 64.6403 26.1533 64.6826L26.1338 66.04ZM31.5781 67.4072C31.5781 68.2536 31.3975 68.9144 31.0361 69.3896C30.6748 69.8617 30.1702 70.0977 29.5225 70.0977C28.9495 70.0977 28.4922 69.8779 28.1504 69.4385L28.0869 70H26.8174V62.5H28.2285V65.1904C28.554 64.8096 28.9821 64.6191 29.5127 64.6191C30.1572 64.6191 30.6618 64.8568 31.0264 65.332C31.3942 65.804 31.5781 66.4697 31.5781 67.3291V67.4072ZM30.167 67.3047C30.167 66.7708 30.0824 66.3818 29.9131 66.1377C29.7438 65.8903 29.4915 65.7666 29.1562 65.7666C28.707 65.7666 28.3978 65.9505 28.2285 66.3184V68.4033C28.401 68.7744 28.7135 68.96 29.166 68.96C29.6217 68.96 29.9212 68.7354 30.0645 68.2861C30.1328 68.0713 30.167 67.7441 30.167 67.3047ZM35.5137 70C35.4486 69.873 35.4014 69.7152 35.3721 69.5264C35.0303 69.9072 34.5859 70.0977 34.0391 70.0977C33.5215 70.0977 33.0918 69.9479 32.75 69.6484C32.4115 69.349 32.2422 68.9714 32.2422 68.5156C32.2422 67.9557 32.4489 67.526 32.8623 67.2266C33.279 66.9271 33.8796 66.7757 34.6641 66.7725H35.3135V66.4697C35.3135 66.2256 35.25 66.0303 35.123 65.8838C34.9993 65.7373 34.8024 65.6641 34.5322 65.6641C34.2946 65.6641 34.1074 65.721 33.9707 65.835C33.8372 65.9489 33.7705 66.1051 33.7705 66.3037H32.3594C32.3594 65.9977 32.4538 65.7145 32.6426 65.4541C32.8314 65.1937 33.0983 64.9902 33.4434 64.8438C33.7884 64.694 34.1758 64.6191 34.6055 64.6191C35.2565 64.6191 35.7725 64.7835 36.1533 65.1123C36.5374 65.4378 36.7295 65.8968 36.7295 66.4893V68.7793C36.7327 69.2806 36.8027 69.6598 36.9395 69.917V70H35.5137ZM34.3467 69.0186C34.555 69.0186 34.7471 68.973 34.9229 68.8818C35.0986 68.7874 35.2288 68.6621 35.3135 68.5059V67.5977H34.7861C34.0798 67.5977 33.7038 67.8418 33.6582 68.3301L33.6533 68.4131C33.6533 68.5889 33.7152 68.7337 33.8389 68.8477C33.9626 68.9616 34.1318 69.0186 34.3467 69.0186ZM39.1123 64.7168L39.1562 65.3271C39.5339 64.8551 40.04 64.6191 40.6748 64.6191C41.2347 64.6191 41.6514 64.7835 41.9248 65.1123C42.1982 65.4411 42.3382 65.9326 42.3447 66.5869V70H40.9336V66.6211C40.9336 66.3216 40.8685 66.1051 40.7383 65.9717C40.6081 65.835 40.3916 65.7666 40.0889 65.7666C39.6917 65.7666 39.3939 65.9359 39.1953 66.2744V70H37.7842V64.7168H39.1123Z" fill="white"/>
<rect x="4" width="45" height="45" rx="10" fill="#0F2B55"/>
<path d="M20.6908 19.7361C20.7719 19.7548 20.9072 19.7641 21.0965 19.7641C21.1686 19.7641 21.243 19.7548 21.3196 19.7361C21.3963 19.7174 21.4639 19.6987 21.5225 19.68C21.5811 19.6613 21.6487 19.6263 21.7253 19.5749C21.802 19.5235 21.8606 19.4838 21.9011 19.4558C21.9417 19.4277 22.0048 19.3763 22.0905 19.3016C22.1761 19.2268 22.2302 19.1801 22.2527 19.1614C22.2753 19.1427 22.3316 19.089 22.4218 19.0002C22.5119 18.9115 22.5615 18.8624 22.5705 18.8531C22.7509 19.2642 23.0191 19.6263 23.3752 19.9393C23.7313 20.2523 24.1032 20.4088 24.4909 20.4088C24.9867 20.4088 25.4285 20.215 25.8162 19.8272C26.2038 19.4394 26.4518 18.9839 26.5599 18.4606C27.2091 19.1708 27.8086 19.5258 28.3586 19.5258C28.6921 19.5258 29.0257 19.4277 29.3593 19.2315C29.6929 19.0353 29.9814 18.7923 30.2248 18.5027C30.342 19.082 30.6282 19.5842 31.0835 20.0094C31.5388 20.4345 32.0414 20.6471 32.5914 20.6471C32.7717 21.3946 32.8619 22.1608 32.8619 22.9457C32.8619 24.3846 32.6816 25.6928 32.3209 26.8701C31.9603 28.0474 31.478 29.0075 30.8739 29.7503C30.2699 30.4932 29.5937 31.0632 28.8454 31.4603C28.0971 31.8574 27.3173 32.0559 26.5059 32.0559C25.6945 32.0466 24.9146 31.8434 24.1663 31.4463C23.418 31.0491 22.7418 30.4815 22.1378 29.7433C21.5337 29.0052 21.0492 28.0474 20.684 26.8701C20.3189 25.6928 20.1363 24.3846 20.1363 22.9457C20.1363 21.9085 20.3211 20.8387 20.6908 19.7361ZM22.9627 22.1748C22.6562 22.1748 22.3767 22.3033 22.1243 22.5603C21.8718 22.8172 21.7456 23.1092 21.7456 23.4362C21.7456 23.7539 21.8561 24.0272 22.0769 24.2562C22.2978 24.4851 22.5615 24.5995 22.8681 24.5995C23.1926 24.5995 23.4789 24.4687 23.7268 24.2071C23.9747 23.9455 24.0987 23.6558 24.0987 23.3381V23.2821C23.8372 23.4503 23.675 23.5344 23.6118 23.5344C23.4315 23.5344 23.2783 23.4666 23.152 23.3311C23.0258 23.1956 22.9627 23.0345 22.9627 22.8476C22.9627 22.6794 23.0889 22.4785 23.3414 22.2449C23.2061 22.1982 23.0799 22.1748 22.9627 22.1748ZM30.1572 22.1748C29.8507 22.1748 29.5667 22.3033 29.3052 22.5603C29.0438 22.8172 28.913 23.1092 28.913 23.4362C28.913 23.7539 29.028 24.0272 29.2579 24.2562C29.4878 24.4851 29.756 24.5995 30.0625 24.5995C30.3781 24.5995 30.6575 24.4687 30.901 24.2071C31.1444 23.9455 31.2661 23.6558 31.2661 23.3381V23.2821C31.0047 23.4503 30.8424 23.5344 30.7793 23.5344C30.5989 23.5344 30.4502 23.4689 30.333 23.3381C30.2158 23.2073 30.1572 23.0438 30.1572 22.8476C30.1572 22.6607 30.2744 22.4598 30.5088 22.2449C30.3736 22.1982 30.2564 22.1748 30.1572 22.1748ZM22.0837 12.0554C22.3451 11.392 22.7125 10.8267 23.1859 10.3595C23.6592 9.89234 24.1753 9.54895 24.7343 9.32937C25.2933 9.10979 25.8838 9 26.5059 9C27.1279 9 27.7185 9.10979 28.2774 9.32937C28.8364 9.54895 29.3525 9.89234 29.8259 10.3595C30.2992 10.8267 30.6666 11.392 30.928 12.0554C31.469 11.8312 32.0167 11.7121 32.5711 11.698C33.1256 11.684 33.644 11.7658 34.1263 11.9433C34.6086 12.1208 35.0639 12.3638 35.4922 12.6721C35.9204 12.9805 36.281 13.3566 36.574 13.8004C36.8671 14.2442 37.097 14.7161 37.2637 15.216C37.4305 15.7159 37.5027 16.2555 37.4801 16.8348C37.4576 17.4141 37.3336 17.9841 37.1082 18.5447C38.0639 18.9372 38.7941 19.5702 39.299 20.4439C39.8039 21.3175 40.036 22.2472 39.9955 23.233C39.9549 24.2188 39.6642 25.1088 39.1232 25.903C39.2584 26.5197 39.2765 27.0897 39.1773 27.6129C39.1052 28.0895 38.9474 28.4656 38.704 28.7412C38.4606 29.0169 38.136 29.122 37.7303 29.0566C37.7033 29.0472 37.6604 29.0355 37.6018 29.0215C37.5432 29.0075 37.5004 28.9958 37.4734 28.9865C37.5455 29.6686 37.4756 30.3367 37.2637 30.9907C37.0519 31.6448 36.7363 32.2124 36.3171 32.6937C35.8979 33.1749 35.3975 33.579 34.816 33.906C34.2345 34.2331 33.6124 34.4036 32.9498 34.4176C32.2871 34.4316 31.6087 34.3031 30.9145 34.0322C30.5899 34.7984 30.1256 35.4337 29.5216 35.9383C28.9175 36.4429 28.2639 36.7629 27.5607 36.8984C26.8575 37.0339 26.1542 37.0339 25.451 36.8984C24.7478 36.7629 24.0964 36.4429 23.4969 35.9383C22.8974 35.4337 22.4398 34.7984 22.1243 34.0322C21.4301 34.3031 20.7516 34.4316 20.089 34.4176C19.4263 34.4036 18.8065 34.2331 18.2295 33.906C17.6525 33.579 17.1522 33.1749 16.7284 32.6937C16.3047 32.2124 15.9869 31.6448 15.775 30.9907C15.5632 30.3367 15.4933 29.6686 15.5654 28.9865C15.5384 28.9958 15.5 29.0075 15.4505 29.0215C15.4009 29.0355 15.3626 29.0472 15.3355 29.0566C14.9208 29.122 14.585 29.0169 14.328 28.7412C14.0711 28.4656 13.8975 28.0895 13.8074 27.6129C13.7172 27.1177 13.7397 26.5477 13.875 25.903C13.325 25.1088 13.0343 24.2165 13.0027 23.226C12.9712 22.2356 13.2146 21.3082 13.733 20.4439C14.2514 19.5796 14.9839 18.9465 15.9305 18.5447C15.7051 17.9841 15.5812 17.4141 15.5586 16.8348C15.5361 16.2555 15.606 15.7159 15.7683 15.216C15.9305 14.7161 16.1582 14.2442 16.4512 13.8004C16.7442 13.3566 17.1026 12.9805 17.5263 12.6721C17.95 12.3638 18.4031 12.1208 18.8854 11.9433C19.3677 11.7658 19.8861 11.684 20.4406 11.698C20.9951 11.7121 21.5428 11.8312 22.0837 12.0554ZM33.6327 20.1566C33.6237 20.1285 33.7477 20.1776 34.0046 20.3037C34.2615 20.4299 34.5974 20.6284 35.0121 20.8994C35.4268 21.1704 35.8596 21.488 36.3103 21.8525C36.7611 22.2169 37.2119 22.6584 37.6627 23.1769C38.1135 23.6955 38.4696 24.2258 38.731 24.7677C38.9925 24.2445 39.1255 23.6955 39.13 23.1209C39.1345 22.5462 39.0218 21.9996 38.7919 21.481C38.562 20.9625 38.1878 20.4883 37.6694 20.0584C37.151 19.6286 36.5312 19.3063 35.81 19.0914C36.1796 18.4093 36.4028 17.7272 36.4794 17.0451C36.556 16.3629 36.5087 15.7533 36.3374 15.216C36.1661 14.6787 35.8866 14.2069 35.4989 13.8004C35.1113 13.3939 34.6582 13.0973 34.1398 12.9104C33.6214 12.7235 33.0309 12.6651 32.3683 12.7352C31.7056 12.8053 31.0407 13.0272 30.3736 13.401C30.1752 12.6534 29.8687 12.0134 29.454 11.4808C29.0392 10.9482 28.584 10.5581 28.0881 10.3105C27.5922 10.0629 27.0648 9.93906 26.5059 9.93906C25.9469 9.93906 25.4195 10.0629 24.9236 10.3105C24.4278 10.5581 23.9725 10.9482 23.5577 11.4808C23.143 12.0134 22.8365 12.6534 22.6382 13.401C21.971 13.0272 21.3084 12.8053 20.6502 12.7352C19.9921 12.6651 19.4038 12.7235 18.8854 12.9104C18.367 13.0973 17.914 13.3939 17.5263 13.8004C17.1386 14.2069 16.8591 14.6787 16.6878 15.216C16.5166 15.7533 16.4715 16.3629 16.5526 17.0451C16.6338 17.7272 16.8591 18.4093 17.2288 19.0914C16.4985 19.3063 15.8742 19.6286 15.3558 20.0584C14.8374 20.4883 14.461 20.9625 14.2266 21.481C13.9922 21.9996 13.8772 22.5462 13.8817 23.1209C13.8862 23.6955 14.0192 24.2445 14.2807 24.7677C14.5421 24.2258 14.8982 23.6955 15.349 23.1769C15.7998 22.6584 16.2506 22.2169 16.7014 21.8525C17.1522 21.488 17.5826 21.1704 17.9929 20.8994C18.4031 20.6284 18.7366 20.4275 18.9936 20.2967C19.2505 20.1659 19.37 20.1192 19.352 20.1566C19.0274 20.876 18.8584 21.6913 18.8448 22.6023C18.8313 23.5133 18.9508 24.3052 19.2032 24.978C19.095 25.1649 18.9215 25.569 18.6826 26.1903C18.4436 26.8117 18.1732 27.3116 17.8711 27.69C17.5691 28.0685 17.1476 28.3838 16.6067 28.6361C16.4625 29.3275 16.4647 29.9863 16.6135 30.6123C16.7622 31.2384 17.0327 31.7616 17.4249 32.1821C17.8171 32.6026 18.2791 32.9273 18.811 33.1562C19.3429 33.3851 19.947 33.4622 20.6232 33.3874C21.2993 33.3127 21.971 33.0838 22.6382 32.7007C22.8455 33.4388 23.1566 34.0695 23.5713 34.5928C23.986 35.116 24.439 35.4991 24.9304 35.7421C25.4217 35.985 25.9469 36.1065 26.5059 36.1065C27.0648 36.1065 27.59 35.985 28.0813 35.7421C28.5727 35.4991 29.0257 35.116 29.4404 34.5928C29.8552 34.0695 30.1662 33.4388 30.3736 32.7007C31.0407 33.0838 31.7124 33.3127 32.3885 33.3874C33.0647 33.4622 33.671 33.3851 34.2074 33.1562C34.7439 32.9273 35.2082 32.6026 35.6004 32.1821C35.9925 31.7616 36.263 31.2384 36.4118 30.6123C36.5605 29.9863 36.5628 29.3275 36.4185 28.6361C35.9948 28.4399 35.6342 28.1829 35.3367 27.8652C35.0391 27.5475 34.8273 27.2509 34.7011 26.9752C34.5748 26.6996 34.4261 26.3515 34.2548 25.931C34.0835 25.5106 33.9392 25.1929 33.822 24.978C34.0655 24.3052 34.1759 23.5157 34.1534 22.6093C34.1308 21.703 33.9573 20.8854 33.6327 20.1566Z" fill="white"/>
</g>
<defs>
<filter id="filter0_d" x="0" y="0" width="53" height="79.2695" filterUnits="userSpaceOnUse" color-interpolation-filters="sRGB">
<feFlood flood-opacity="0" result="BackgroundImageFix"/>
<feColorMatrix in="SourceAlpha" type="matrix" values="0 0 0 0 0 0 0 0 0 0 0 0 0 0 0 0 0 0 127 0"/>
<feOffset dy="4"/>
<feGaussianBlur stdDeviation="2"/>
<feColorMatrix type="matrix" values="0 0 0 0 0 0 0 0 0 0 0 0 0 0 0 0 0 0 0.25 0"/>
<feBlend mode="normal" in2="BackgroundImageFix" result="effect1_dropShadow"/>
<feBlend mode="normal" in="SourceGraphic" in2="effect1_dropShadow" result="shape"/>
</filter>
</defs>
</svg>
