<svg width="53" height="67" viewBox="0 0 53 67" fill="none" xmlns="http://www.w3.org/2000/svg">
<g filter="url(#filter0_d)">
<path d="M14.6455 50.8906L16.4717 56.0469L18.2881 50.8906H20.2119V58H18.7422V56.0566L18.8887 52.7021L16.9697 58H15.9639L14.0498 52.707L14.1963 56.0566V58H12.7314V50.8906H14.6455ZM24.46 58C24.3949 57.873 24.3477 57.7152 24.3184 57.5264C23.9766 57.9072 23.5322 58.0977 22.9854 58.0977C22.4678 58.0977 22.0381 57.9479 21.6963 57.6484C21.3577 57.349 21.1885 56.9714 21.1885 56.5156C21.1885 55.9557 21.3952 55.526 21.8086 55.2266C22.2253 54.9271 22.8258 54.7757 23.6104 54.7725H24.2598V54.4697C24.2598 54.2256 24.1963 54.0303 24.0693 53.8838C23.9456 53.7373 23.7487 53.6641 23.4785 53.6641C23.2409 53.6641 23.0537 53.721 22.917 53.835C22.7835 53.9489 22.7168 54.1051 22.7168 54.3037H21.3057C21.3057 53.9977 21.4001 53.7145 21.5889 53.4541C21.7777 53.1937 22.0446 52.9902 22.3896 52.8438C22.7347 52.694 23.1221 52.6191 23.5518 52.6191C24.2028 52.6191 24.7188 52.7835 25.0996 53.1123C25.4837 53.4378 25.6758 53.8968 25.6758 54.4893V56.7793C25.679 57.2806 25.749 57.6598 25.8857 57.917V58H24.46ZM23.293 57.0186C23.5013 57.0186 23.6934 56.973 23.8691 56.8818C24.0449 56.7874 24.1751 56.6621 24.2598 56.5059V55.5977H23.7324C23.026 55.5977 22.6501 55.8418 22.6045 56.3301L22.5996 56.4131C22.5996 56.5889 22.6615 56.7337 22.7852 56.8477C22.9089 56.9616 23.0781 57.0186 23.293 57.0186ZM29.7285 54.04C29.5365 54.014 29.3672 54.001 29.2207 54.001C28.6868 54.001 28.3369 54.1816 28.1709 54.543V58H26.7598V52.7168H28.0928L28.1318 53.3467C28.415 52.8617 28.8073 52.6191 29.3086 52.6191C29.4648 52.6191 29.6113 52.6403 29.748 52.6826L29.7285 54.04ZM32.3311 55.8809L31.8232 56.3887V58H30.4121V50.5H31.8232V54.6553L32.0967 54.3037L33.4492 52.7168H35.1436L33.2344 54.9189L35.3096 58H33.6885L32.3311 55.8809ZM38.0879 58.0977C37.3132 58.0977 36.6816 57.86 36.1934 57.3848C35.7083 56.9095 35.4658 56.2764 35.4658 55.4854V55.3486C35.4658 54.818 35.5684 54.3444 35.7734 53.9277C35.9785 53.5078 36.2682 53.1855 36.6426 52.9609C37.0202 52.7331 37.4499 52.6191 37.9316 52.6191C38.6543 52.6191 39.2223 52.847 39.6357 53.3027C40.0524 53.7585 40.2607 54.4046 40.2607 55.2412V55.8174H36.8965C36.9421 56.1624 37.0788 56.4391 37.3066 56.6475C37.5378 56.8558 37.8291 56.96 38.1807 56.96C38.7243 56.96 39.1491 56.763 39.4551 56.3691L40.1484 57.1455C39.9368 57.445 39.6504 57.6794 39.2891 57.8486C38.9277 58.0146 38.5273 58.0977 38.0879 58.0977ZM37.9268 53.7617C37.6468 53.7617 37.4189 53.8561 37.2432 54.0449C37.0706 54.2337 36.96 54.5039 36.9111 54.8555H38.874V54.7432C38.8675 54.4307 38.7829 54.1898 38.6201 54.0205C38.4574 53.848 38.2262 53.7617 37.9268 53.7617ZM42.7559 51.418V52.7168H43.6592V53.752H42.7559V56.3887C42.7559 56.584 42.7933 56.724 42.8682 56.8086C42.943 56.8932 43.0863 56.9355 43.2979 56.9355C43.4541 56.9355 43.5924 56.9242 43.7129 56.9014V57.9707C43.4362 58.0553 43.1514 58.0977 42.8584 58.0977C41.8688 58.0977 41.3643 57.598 41.3447 56.5986V53.752H40.5732V52.7168H41.3447V51.418H42.7559Z" fill="white"/>
<rect x="4" width="45" height="45" rx="10" fill="#0F2B55"/>
<path d="M39.9353 19.6836C39.9353 19.7351 39.9497 19.7737 39.9784 19.7994C40.0072 19.8251 40.0072 19.8637 39.9784 19.9151V20.6867C39.9784 20.9439 39.8779 21.1626 39.6767 21.3426C39.4755 21.5226 39.2312 21.6127 38.9438 21.6127H36.9607V34.1127C36.9607 34.3699 36.8745 34.5756 36.7021 34.7299C36.5296 34.8843 36.2853 34.9743 35.9692 35H16.0092C15.7218 35 15.4775 34.91 15.2764 34.7299C15.0752 34.5499 14.9746 34.3441 14.9746 34.1127V21.6127H12.9915C12.7041 21.6127 12.4742 21.5226 12.3018 21.3426C12.1293 21.1626 12.0287 20.9439 12 20.6867V19.9151C12 19.8122 12.0144 19.7351 12.0431 19.6836L14.5866 11.3117C14.7303 10.9002 14.9746 10.5787 15.3195 10.3472C15.6644 10.1157 16.0667 10 16.5266 10H35.4519C35.9117 10 36.3141 10.1157 36.659 10.3472C37.0038 10.5787 37.2338 10.9002 37.3487 11.3117L39.9353 19.6836ZM33.9861 21.6127H17.9923V26.5123C17.9923 26.6409 18.0498 26.7438 18.1647 26.821C18.2797 26.8981 18.3947 26.9496 18.5096 26.9753H33.4688C33.6125 26.9753 33.7419 26.9239 33.8568 26.821C33.9718 26.7181 34.0149 26.6152 33.9861 26.5123V21.6127Z" fill="white"/>
</g>
<defs>
<filter id="filter0_d" x="0" y="0" width="53" height="66.0977" filterUnits="userSpaceOnUse" color-interpolation-filters="sRGB">
<feFlood flood-opacity="0" result="BackgroundImageFix"/>
<feColorMatrix in="SourceAlpha" type="matrix" values="0 0 0 0 0 0 0 0 0 0 0 0 0 0 0 0 0 0 127 0"/>
<feOffset dy="4"/>
<feGaussianBlur stdDeviation="2"/>
<feColorMatrix type="matrix" values="0 0 0 0 0 0 0 0 0 0 0 0 0 0 0 0 0 0 0.25 0"/>
<feBlend mode="normal" in2="BackgroundImageFix" result="effect1_dropShadow"/>
<feBlend mode="normal" in="SourceGraphic" in2="effect1_dropShadow" result="shape"/>
</filter>
</defs>
</svg>
