<svg width="53" height="53" viewBox="0 0 53 53" fill="none" xmlns="http://www.w3.org/2000/svg">
<g filter="url(#filter0_d)">
<rect x="5" y="1" width="43" height="43" rx="21.5" fill="#0F2B55" stroke="#798AA3" stroke-width="2"/>
<mask id="path-2-inside-1" fill="white">
<path d="M28.943 21.7412H12.4859C11.3441 21.7412 10.439 22.4641 10.439 23.3657L10.4287 33.1126C10.4287 34.0142 11.3441 34.7371 12.4859 34.7371H16.8165C17.2651 34.7371 17.6287 34.3734 17.6287 33.9249C17.6287 33.4763 17.2651 33.1126 16.8165 33.1126H14.9226C13.5768 33.1126 12.4859 32.0217 12.4859 30.6759C12.4859 29.3301 13.5768 28.2392 14.9226 28.2392H26.1267C28.8182 28.2392 31.0001 26.0572 31.0001 23.3657C31.0001 22.4641 30.0847 21.7412 28.943 21.7412ZM28.943 24.1779C28.943 24.6265 28.5793 24.9902 28.1308 24.9902H13.2981C12.8495 24.9902 12.4859 24.6265 12.4859 24.1779C12.4859 23.7294 12.8495 23.3657 13.2981 23.3657H28.1308C28.5793 23.3657 28.943 23.7294 28.943 24.1779ZM25.1839 32.9154C24.3303 33.5883 23.1264 33.5878 22.2734 32.9141L21.3747 32.2045C21.0479 31.9464 20.5867 31.9464 20.2598 32.2045C19.8041 32.5643 19.8038 33.2553 20.259 33.6156L22.0507 35.0338C23.0339 35.8121 24.423 35.8129 25.4071 35.0357L30.1066 31.3247C30.5624 30.9647 30.5624 30.2734 30.1066 29.9134C29.7801 29.6556 29.3194 29.6554 28.9928 29.9129L25.1839 32.9154Z"/>
</mask>
<path d="M28.943 21.7412H12.4859C11.3441 21.7412 10.439 22.4641 10.439 23.3657L10.4287 33.1126C10.4287 34.0142 11.3441 34.7371 12.4859 34.7371H16.8165C17.2651 34.7371 17.6287 34.3734 17.6287 33.9249C17.6287 33.4763 17.2651 33.1126 16.8165 33.1126H14.9226C13.5768 33.1126 12.4859 32.0217 12.4859 30.6759C12.4859 29.3301 13.5768 28.2392 14.9226 28.2392H26.1267C28.8182 28.2392 31.0001 26.0572 31.0001 23.3657C31.0001 22.4641 30.0847 21.7412 28.943 21.7412ZM28.943 24.1779C28.943 24.6265 28.5793 24.9902 28.1308 24.9902H13.2981C12.8495 24.9902 12.4859 24.6265 12.4859 24.1779C12.4859 23.7294 12.8495 23.3657 13.2981 23.3657H28.1308C28.5793 23.3657 28.943 23.7294 28.943 24.1779ZM25.1839 32.9154C24.3303 33.5883 23.1264 33.5878 22.2734 32.9141L21.3747 32.2045C21.0479 31.9464 20.5867 31.9464 20.2598 32.2045C19.8041 32.5643 19.8038 33.2553 20.259 33.6156L22.0507 35.0338C23.0339 35.8121 24.423 35.8129 25.4071 35.0357L30.1066 31.3247C30.5624 30.9647 30.5624 30.2734 30.1066 29.9134C29.7801 29.6556 29.3194 29.6554 28.9928 29.9129L25.1839 32.9154Z" fill="#EEEEEE"/>
<path d="M10.439 23.3657L12.439 23.3678V23.3657H10.439ZM10.4287 33.1126L8.42871 33.1105V33.1126H10.4287ZM28.9928 29.9129L27.7546 28.3422L28.9928 29.9129ZM30.1066 31.3247L31.3461 32.8943L30.1066 31.3247ZM22.0507 35.0338L20.8094 36.602L22.0507 35.0338ZM21.3747 32.2045L20.1352 33.7741L21.3747 32.2045ZM28.943 19.7412H12.4859V23.7412H28.943V19.7412ZM12.4859 19.7412C10.6914 19.7412 8.439 20.9564 8.439 23.3657H12.439C12.439 23.4827 12.408 23.5874 12.367 23.6651C12.3282 23.7387 12.2891 23.7728 12.2791 23.7808C12.264 23.7928 12.3269 23.7412 12.4859 23.7412V19.7412ZM8.439 23.3636L8.42871 33.1105L12.4287 33.1147L12.439 23.3678L8.439 23.3636ZM8.42871 33.1126C8.42871 35.5332 10.7055 36.7371 12.4859 36.7371V32.7371C12.3262 32.7371 12.258 32.685 12.2686 32.6933C12.2767 32.6997 12.3154 32.7327 12.3547 32.8063C12.3963 32.8845 12.4287 32.9915 12.4287 33.1126H8.42871ZM12.4859 36.7371H16.8165V32.7371H12.4859V36.7371ZM16.8165 31.1126H14.9226V35.1126H16.8165V31.1126ZM14.9226 30.2392H26.1267V26.2392H14.9226V30.2392ZM33.0001 23.3657C33.0001 20.9452 30.7233 19.7412 28.943 19.7412V23.7412C29.1027 23.7412 29.1708 23.7933 29.1602 23.785C29.1521 23.7786 29.1134 23.7456 29.0742 23.672C29.0326 23.5938 29.0001 23.4868 29.0001 23.3657H33.0001ZM28.1308 22.9902H13.2981V26.9902H28.1308V22.9902ZM13.2981 25.3657H28.1308V21.3657H13.2981V25.3657ZM23.5128 31.3445L22.6142 30.6349L20.1352 33.7741L21.0339 34.4837L23.5128 31.3445ZM19.0178 35.1838L20.8094 36.602L23.292 33.4656L21.5003 32.0475L19.0178 35.1838ZM26.6466 36.6053L31.3461 32.8943L28.8671 29.755L24.1676 33.4661L26.6466 36.6053ZM27.7546 28.3422L23.9458 31.3447L26.422 34.486L30.2309 31.4836L27.7546 28.3422ZM31.3461 28.3438C30.2934 27.5125 28.808 27.5119 27.7546 28.3422L30.2309 31.4836C29.8309 31.7989 29.2668 31.7987 28.8671 31.483L31.3461 28.3438ZM31.3461 32.8943C32.8159 31.7335 32.8159 29.5045 31.3461 28.3438L28.8671 31.483C28.3089 31.0422 28.3089 30.1958 28.8671 29.755L31.3461 32.8943ZM20.8094 36.602C22.5193 37.9555 24.9351 37.9568 26.6466 36.6053L24.1676 33.4661C23.9109 33.6689 23.5485 33.6687 23.292 33.4656L20.8094 36.602ZM19.0204 30.6349C17.5514 31.7949 17.5501 34.0221 19.0178 35.1838L21.5003 32.0475C22.0574 32.4884 22.0569 33.3338 21.4993 33.7741L19.0204 30.6349ZM21.0339 34.4837C22.6131 35.7308 24.8417 35.7318 26.422 34.486L23.9458 31.3447C23.8188 31.4448 23.6397 31.4447 23.5128 31.3445L21.0339 34.4837ZM28.1308 25.3657C27.4748 25.3657 26.943 24.8339 26.943 24.1779H30.943C30.943 22.6248 29.6839 21.3657 28.1308 21.3657V25.3657ZM14.4859 24.1779C14.4859 24.8339 13.9541 25.3657 13.2981 25.3657V21.3657C11.7449 21.3657 10.4859 22.6248 10.4859 24.1779H14.4859ZM13.2981 22.9902C13.9541 22.9902 14.4859 23.522 14.4859 24.1779H10.4859C10.4859 25.7311 11.7449 26.9902 13.2981 26.9902V22.9902ZM28.1308 26.9902C29.6839 26.9902 30.943 25.7311 30.943 24.1779H26.943C26.943 23.522 27.4748 22.9902 28.1308 22.9902V26.9902ZM26.1267 30.2392C29.9228 30.2392 33.0001 27.1618 33.0001 23.3657H29.0001C29.0001 24.9527 27.7136 26.2392 26.1267 26.2392V30.2392ZM14.4859 30.6759C14.4859 30.4347 14.6814 30.2392 14.9226 30.2392V26.2392C12.4722 26.2392 10.4859 28.2255 10.4859 30.6759H14.4859ZM14.9226 31.1126C14.6814 31.1126 14.4859 30.9171 14.4859 30.6759H10.4859C10.4859 33.1262 12.4722 35.1126 14.9226 35.1126V31.1126ZM19.6287 33.9249C19.6287 32.3717 18.3696 31.1126 16.8165 31.1126V35.1126C16.1605 35.1126 15.6287 34.5808 15.6287 33.9249H19.6287ZM22.6142 30.6349C21.5607 29.8029 20.0739 29.8029 19.0204 30.6349L21.4993 33.7741C21.0995 34.0899 20.5351 34.0899 20.1352 33.7741L22.6142 30.6349ZM16.8165 36.7371C18.3696 36.7371 19.6287 35.478 19.6287 33.9249H15.6287C15.6287 33.2689 16.1605 32.7371 16.8165 32.7371V36.7371Z" fill="#ECECEC" mask="url(#path-2-inside-1)"/>
<path d="M36.1479 11.2288L36.1379 15.9266C36.1335 18.0325 34.425 19.7373 32.3191 19.7374C30.21 19.7374 28.5002 18.0276 28.5002 15.9185L28.5002 11.2207C28.5002 9.10887 30.2122 7.39688 32.3241 7.39691C34.4391 7.39693 36.1523 9.11384 36.1479 11.2288Z" stroke="#ECECEC" stroke-width="2"/>
<mask id="path-5-inside-2" fill="white">
<ellipse cx="32.2967" cy="15.4971" rx="6.35718" ry="1.15385" transform="rotate(-89.8787 32.2967 15.4971)"/>
</mask>
<ellipse cx="32.2967" cy="15.4971" rx="6.35718" ry="1.15385" transform="rotate(-89.8787 32.2967 15.4971)" fill="#0F2B55"/>
<path d="M32.3059 11.1399C31.5829 11.1384 31.1615 10.7272 31.0434 10.5935C30.9178 10.4514 30.8899 10.3579 30.9186 10.4252C30.9695 10.5444 31.0608 10.8398 31.1535 11.3566C31.333 12.3575 31.4541 13.8218 31.4505 15.4953L35.4505 15.5038C35.4544 13.6663 35.324 11.9515 35.0907 10.6506C34.977 10.0165 34.8217 9.38047 34.5978 8.85565C34.4892 8.60102 34.3169 8.25747 34.0415 7.94561C33.7735 7.64223 33.1967 7.14179 32.3144 7.13993L32.3059 11.1399ZM31.4505 15.4953C31.447 17.1688 31.3197 18.6326 31.136 19.6327C31.0411 20.1491 30.9485 20.4441 30.8972 20.563C30.8682 20.6303 30.8965 20.5369 31.0226 20.3953C31.1413 20.2621 31.5644 19.8527 32.2875 19.8543L32.279 23.8542C33.1614 23.8561 33.7402 23.3581 34.0095 23.0559C34.2862 22.7452 34.46 22.4024 34.5697 22.1482C34.7958 21.6243 34.9538 20.9889 35.0702 20.3553C35.3089 19.0554 35.4466 17.3412 35.4505 15.5038L31.4505 15.4953ZM32.2875 19.8543C33.0105 19.8558 33.4319 20.2669 33.55 20.4006C33.6756 20.5428 33.7035 20.6363 33.6748 20.5689C33.6239 20.4498 33.5326 20.1543 33.4399 19.6375C33.2604 18.6367 33.1393 17.1724 33.1428 15.4989L29.1429 15.4904C29.139 17.3279 29.2694 19.0427 29.5027 20.3436C29.6164 20.9776 29.7717 21.6137 29.9956 22.1385C30.1042 22.3931 30.2765 22.7367 30.5519 23.0486C30.8199 23.3519 31.3966 23.8524 32.279 23.8542L32.2875 19.8543ZM33.1428 15.4989C33.1464 13.8254 33.2737 12.3616 33.4574 11.3615C33.5523 10.8451 33.6449 10.5501 33.6962 10.4311C33.7252 10.3639 33.6969 10.4572 33.5708 10.5989C33.4521 10.7321 33.029 11.1414 32.3059 11.1399L32.3144 7.13993C31.432 7.13806 30.8531 7.63605 30.5839 7.93829C30.3072 8.24898 30.1334 8.5918 30.0237 8.84597C29.7976 9.36984 29.6396 10.0052 29.5232 10.6388C29.2844 11.9387 29.1467 13.6529 29.1429 15.4904L33.1428 15.4989Z" fill="#ECECEC" mask="url(#path-5-inside-2)"/>
</g>
<defs>
<filter id="filter0_d" x="0" y="0" width="53" height="53" filterUnits="userSpaceOnUse" color-interpolation-filters="sRGB">
<feFlood flood-opacity="0" result="BackgroundImageFix"/>
<feColorMatrix in="SourceAlpha" type="matrix" values="0 0 0 0 0 0 0 0 0 0 0 0 0 0 0 0 0 0 127 0"/>
<feOffset dy="4"/>
<feGaussianBlur stdDeviation="2"/>
<feColorMatrix type="matrix" values="0 0 0 0 0 0 0 0 0 0 0 0 0 0 0 0 0 0 0.25 0"/>
<feBlend mode="normal" in2="BackgroundImageFix" result="effect1_dropShadow"/>
<feBlend mode="normal" in="SourceGraphic" in2="effect1_dropShadow" result="shape"/>
</filter>
</defs>
</svg>
