<svg width="43" height="43" viewBox="0 0 43 43" fill="none" xmlns="http://www.w3.org/2000/svg">
<circle cx="21.5" cy="21.5" r="21.5" fill="white"/>
<circle cx="21.5" cy="21.5" r="21" stroke="black" stroke-opacity="0.22"/>
<g filter="url(#filter0_d)">
<path d="M12.2 12.0168C11.8817 12.0168 11.5765 12.1307 11.3515 12.3334C11.1264 12.5362 11 12.8111 11 13.0978V17.4216H17V12.0168H12.2ZM15.5 16.0704H12.5V13.368H15.5V16.0704Z" fill="black"/>
<path d="M11 29.8523C11 30.139 11.1264 30.414 11.3515 30.6167C11.5765 30.8194 11.8817 30.9333 12.2 30.9333H17V25.5286H11V29.8523ZM12.5 26.8797H15.5V29.5821H12.5V26.8797Z" fill="black"/>
<path d="M25.9999 30.9333H30.7999C31.1181 30.9333 31.4234 30.8194 31.6484 30.6167C31.8734 30.414 31.9999 30.139 31.9999 29.8523V25.5286H25.9999V30.9333ZM27.4999 26.8797H30.4999V29.5821H27.4999V26.8797Z" fill="black"/>
<path d="M30.7999 12.0168H25.9999V17.4216H31.9999V13.0978C31.9999 12.8111 31.8734 12.5362 31.6484 12.3334C31.4234 12.1307 31.1181 12.0168 30.7999 12.0168ZM30.4999 16.0704H27.4999V13.368H30.4999V16.0704Z" fill="black"/>
<path d="M22.9999 16.0704V14.7192H19.9999V17.4216H21.4999V16.0704H22.9999Z" fill="black"/>
<path d="M16.9998 17.4214H18.4998V18.7725H16.9998V17.4214Z" fill="black"/>
<path d="M18.5001 18.7729H21.5001V20.1241H18.5001V18.7729Z" fill="black"/>
<path d="M23.0001 13.368V14.7192H24.5001V12.0168H18.5001V14.7192H20.0001V13.368H23.0001Z" fill="black"/>
<path d="M11 18.7729H12.5V21.4753H11V18.7729Z" fill="black"/>
<path d="M17 20.1241V21.4753H15.5V18.7729H14V21.4753H12.5V22.8264H11V24.1776H14V22.8264H15.5V24.1776H17V22.8264H18.5V20.1241H17Z" fill="black"/>
<path d="M23.0002 20.1238H24.5002V21.475H26.0002V20.1238H27.5002V18.7726H24.5002V16.0703H23.0002V17.4215H21.5002V18.7726H23.0002V20.1238Z" fill="black"/>
<path d="M21.5001 29.5822H18.5001V30.9333H24.5001V29.5822H23.0001V28.231H21.5001V29.5822Z" fill="black"/>
<path d="M24.4999 22.8264V21.4752H22.9999V20.124H21.4999V21.4752H19.9999V22.8264H21.4999V24.1776H22.9999V22.8264H24.4999Z" fill="black"/>
<path d="M24.5 22.8262H29V24.1773H24.5V22.8262Z" fill="black"/>
<path d="M23 24.1775H24.5V28.2311H23V24.1775Z" fill="black"/>
<path d="M18.5001 28.2309H20.0001V26.8797H21.5001V25.5285H20.0001V22.8262H18.5001V28.2309Z" fill="black"/>
</g>
<path d="M32.8261 0.609619H31.7392V2.06519H30.6522V3.52075H31.7392V4.97632H32.8261V3.52075H33.9131V2.06519H32.8261V0.609619Z" fill="black"/>
<defs>
<filter id="filter0_d" x="7" y="12.0168" width="28.9999" height="26.9165" filterUnits="userSpaceOnUse" color-interpolation-filters="sRGB">
<feFlood flood-opacity="0" result="BackgroundImageFix"/>
<feColorMatrix in="SourceAlpha" type="matrix" values="0 0 0 0 0 0 0 0 0 0 0 0 0 0 0 0 0 0 127 0"/>
<feOffset dy="4"/>
<feGaussianBlur stdDeviation="2"/>
<feColorMatrix type="matrix" values="0 0 0 0 0 0 0 0 0 0 0 0 0 0 0 0 0 0 0.25 0"/>
<feBlend mode="normal" in2="BackgroundImageFix" result="effect1_dropShadow"/>
<feBlend mode="normal" in="SourceGraphic" in2="effect1_dropShadow" result="shape"/>
</filter>
</defs>
</svg>
