<svg width="53" height="53" viewBox="0 0 53 53" fill="none" xmlns="http://www.w3.org/2000/svg">
<g filter="url(#filter0_d)">
<rect x="5" y="1" width="43" height="43" rx="21.5" fill="#0F2B55" stroke="#8192A2" stroke-width="2"/>
<mask id="path-2-inside-1" fill="white">
<path d="M34.0722 20.7104C33.8937 20.7104 33.7489 20.5657 33.7489 20.3871V18.8613C33.7489 18.6573 33.7152 18.4547 33.649 18.2617L32.6657 15.3931C32.6332 15.2983 32.6167 15.1987 32.6167 15.0985V14.8295C32.6167 14.6488 32.7782 14.4867 32.7782 14.3061C32.7782 14.231 32.7398 14.1654 32.6799 14.1176C32.644 14.089 32.6167 14.0486 32.6167 14.0027C32.6167 13.9568 32.644 13.9164 32.6799 13.8878C32.7398 13.84 32.7782 13.7744 32.7782 13.6993C32.7782 13.695 32.7701 13.6947 32.7688 13.6988C32.7554 13.7413 32.7275 13.7795 32.6883 13.8084C32.6413 13.8431 32.5812 13.8619 32.5193 13.8611C32.3768 13.8611 32.2607 13.7646 32.2607 13.6457C32.2618 13.5923 32.2854 13.5411 32.3271 13.5018C32.3688 13.4624 32.4258 13.4376 32.4872 13.4321C32.4763 13.4318 32.4657 13.4297 32.4545 13.4297C32.276 13.4297 32.131 13.5502 32.131 13.6993C32.131 13.7745 32.1695 13.8402 32.2298 13.888C32.2658 13.9165 32.2932 13.9568 32.2932 14.0027C32.2932 14.0486 32.2658 14.089 32.2298 14.1175C32.1695 14.1653 32.131 14.2309 32.131 14.3061C32.131 14.487 32.2932 14.6491 32.2932 14.83V15.0988C32.2932 15.1988 32.2766 15.2982 32.2442 15.3928L31.2606 18.2617C31.1944 18.4547 31.1606 18.6573 31.1606 18.8614V20.3871C31.1606 20.5657 31.0159 20.7104 30.8373 20.7104C30.6587 20.7104 30.514 20.8552 30.514 21.0337V21.0778C30.514 21.1868 30.5624 21.2901 30.6461 21.3599L30.8373 21.5194C31.0422 21.6903 31.1606 21.9433 31.1606 22.2101V24.3527C31.1606 24.4162 31.1092 24.4676 31.0458 24.4676C30.9565 24.4676 30.9007 24.3696 30.9406 24.2897C31.0804 24.0096 31.1606 23.7144 31.1606 23.407C31.1606 22.2839 30.1353 21.178 28.7248 20.6026C27.306 20.0235 26.394 19.5294 25.9605 19.2756C25.8747 19.2254 25.8233 19.1331 25.8233 19.0337C25.8233 18.8995 25.9214 18.7892 26.0369 18.721C26.2013 18.6237 26.3087 18.4645 26.3087 18.2835C26.3087 18.1146 26.2149 17.9644 26.0685 17.8661C25.939 17.7791 25.8233 17.652 25.8233 17.496C25.8233 17.3238 25.9565 17.1835 26.1236 17.1422C26.7911 16.9772 27.2791 16.4669 27.2791 15.8566C27.2791 15.8344 27.2387 15.8331 27.2322 15.8543C27.0902 16.3203 26.5883 16.6656 25.9849 16.6656C25.2703 16.6656 24.6914 16.1826 24.6914 15.5869C24.6914 15.0844 25.105 14.6664 25.6631 14.5474C25.6818 14.5434 25.6809 14.5083 25.6618 14.5083C24.7687 14.5083 24.0441 15.1121 24.0441 15.8566C24.0441 16.4666 24.5322 16.9769 25.1995 17.1421C25.3667 17.1835 25.4999 17.3238 25.4999 17.4961C25.4999 17.652 25.3843 17.7792 25.2548 17.8662C25.1083 17.9646 25.0145 18.1147 25.0145 18.2835C25.0145 18.4645 25.1219 18.6237 25.2863 18.721C25.4018 18.7892 25.4999 18.8995 25.4999 19.0337C25.4999 19.1331 25.4485 19.2254 25.3627 19.2756C24.9292 19.5294 24.0172 20.0235 22.5984 20.6026C21.1882 21.178 20.1626 22.2839 20.1626 23.407C20.1626 23.7144 20.2428 24.0094 20.3827 24.2897C20.4226 24.3696 20.3668 24.4676 20.2775 24.4676C20.214 24.4676 20.1626 24.4161 20.1626 24.3527V22.2101C20.1626 21.9433 20.281 21.6903 20.4859 21.5194L20.6771 21.3599C20.7608 21.2901 20.8092 21.1868 20.8092 21.0778V21.0337C20.8092 20.8552 20.6645 20.7104 20.4859 20.7104C20.3073 20.7104 20.1626 20.5657 20.1626 20.3871V18.8613C20.1626 18.6573 20.1288 18.4547 20.0627 18.2617L19.0793 15.3927C19.0469 15.2981 19.0303 15.1988 19.0303 15.0989V14.83C19.0303 14.6491 19.1925 14.487 19.1925 14.3061C19.1925 14.2309 19.154 14.1653 19.0937 14.1175C19.0577 14.089 19.0303 14.0486 19.0303 14.0027C19.0303 13.9568 19.0577 13.9165 19.0937 13.888C19.154 13.8402 19.1925 13.7745 19.1925 13.6993C19.1925 13.695 19.1843 13.6946 19.183 13.6988C19.1695 13.7412 19.1415 13.7794 19.1024 13.8082C19.0554 13.8429 18.9955 13.8617 18.9336 13.8611C18.7908 13.8611 18.675 13.7646 18.675 13.6457C18.6761 13.5923 18.6997 13.5411 18.7414 13.5018C18.7831 13.4624 18.8401 13.4376 18.9015 13.4321C18.8903 13.4318 18.88 13.4297 18.8691 13.4297C18.6897 13.4297 18.5456 13.5502 18.5456 13.6993C18.5456 13.7745 18.584 13.8401 18.6442 13.8879C18.6801 13.9164 18.7075 13.9568 18.7075 14.0027C18.7075 14.0487 18.6799 14.0892 18.6438 14.1178C18.5838 14.1655 18.5456 14.2311 18.5456 14.3061C18.5456 14.4869 18.7075 14.6489 18.7075 14.8297V15.0987C18.7075 15.1988 18.6909 15.2982 18.6584 15.3929L17.6749 18.2617C17.6087 18.4547 17.5749 18.6573 17.5749 18.8614V20.387C17.5749 20.5656 17.4301 20.7104 17.2514 20.7104C17.0728 20.7104 16.928 20.8553 16.928 21.0339V21.0778C16.928 21.1867 16.9764 21.2901 17.0601 21.3599L17.2514 21.5194C17.4564 21.6903 17.5749 21.9433 17.5749 22.2102V24.627C17.5749 27.9743 20.2884 30.6878 23.6356 30.6878H27.6876C31.0352 30.6878 33.7489 27.974 33.7489 24.6264V22.2101C33.7489 21.9433 33.8674 21.6903 34.0722 21.5194L34.2635 21.3599C34.3472 21.2901 34.3955 21.1868 34.3955 21.0778V21.0337C34.3955 20.8552 34.2508 20.7104 34.0722 20.7104ZM19.6588 30.256C18.7861 30.256 18.0787 29.5486 18.0787 28.6758V22.579C18.0787 22.1427 18.4323 21.7891 18.8686 21.7891C19.3049 21.7891 19.6585 22.1427 19.6585 22.579V30.2557C19.6585 30.2559 19.6587 30.256 19.6588 30.256ZM19.6588 20.7104C19.4905 20.7104 19.3541 20.574 19.3541 20.4057V20.2362C19.3541 20.094 19.4361 19.9671 19.4904 19.8356C19.507 19.7954 19.516 19.7528 19.516 19.7087C19.516 19.5485 19.3953 19.3902 19.2293 19.3085C19.0098 19.1996 18.7279 19.1995 18.5085 19.3085C18.3425 19.3905 18.2221 19.5488 18.2221 19.7087C18.2221 19.7527 18.231 19.7951 18.2475 19.8353C18.3015 19.9671 18.3837 20.0941 18.3837 20.2365V20.5579C18.3837 20.6421 18.3154 20.7104 18.2312 20.7104C18.1469 20.7104 18.0787 20.6421 18.0787 20.5579V18.7468C18.0787 18.6597 18.0931 18.5731 18.1213 18.4907C18.3653 17.7789 19.372 17.7789 19.6159 18.4907C19.6441 18.5731 19.6585 18.6597 19.6585 18.7468V20.7101C19.6585 20.7103 19.6587 20.7104 19.6588 20.7104ZM20.1691 27.5774C20.1691 26.0982 21.3683 24.899 22.8475 24.899H28.4762C29.9555 24.899 31.1547 26.0982 31.1547 27.5775V28.3185C31.1547 29.3886 30.2872 30.256 29.2172 30.256H27.836C27.5287 30.256 27.2797 30.007 27.2797 29.6997C27.2797 29.564 27.3334 29.4356 27.4073 29.3218C27.5351 29.1247 27.6025 28.9075 27.6025 28.6845C27.6025 28.1832 27.2538 27.6873 26.7132 27.4195C26.3417 27.2365 26.1441 27.0894 26.1172 27.069C26.115 27.0673 26.113 27.0657 26.1108 27.0639C25.8501 26.8545 25.4755 26.8561 25.2132 27.0636C25.211 27.0655 25.0123 27.2213 24.6096 27.4198C24.07 27.687 23.721 28.1829 23.721 28.6842C23.721 28.9071 23.7883 29.1244 23.9163 29.3214C23.9903 29.4353 24.0441 29.5639 24.0441 29.6998C24.0441 30.0068 23.7952 30.2558 23.4881 30.2558H22.1066C21.0366 30.2558 20.1691 29.3883 20.1691 28.3183V27.5774ZM24.6914 30.256V29.9987C24.6914 29.55 24.3682 29.1331 24.3682 28.6845C24.3682 28.3639 24.6087 28.0478 24.9406 27.8833C25.3799 27.6663 25.9439 27.6665 26.3832 27.8836C26.7148 28.0478 26.9556 28.3638 26.9556 28.6847C26.9556 28.818 26.9146 28.9449 26.8417 29.0593C26.7355 29.2261 26.6321 29.4046 26.6321 29.6023C26.6321 29.9635 26.3393 30.2563 25.9782 30.2563H24.6916C24.6915 30.2563 24.6914 30.2562 24.6914 30.256ZM33.2449 29.4661C33.2449 29.9024 32.8912 30.256 32.4549 30.256C32.0186 30.256 31.665 29.9024 31.665 29.4661V22.579C31.665 22.1427 32.0186 21.7891 32.4549 21.7891C32.8912 21.7891 33.2449 22.1427 33.2449 22.579V29.4661ZM33.2449 20.7104C33.0766 20.7104 32.9401 20.574 32.9401 20.4057V20.2362C32.9401 20.094 33.0221 19.9671 33.0764 19.8356C33.093 19.7954 33.102 19.7528 33.102 19.7087C33.102 19.5485 32.9813 19.3902 32.8153 19.3085C32.5958 19.1997 32.3136 19.1995 32.0942 19.3085C31.9282 19.3905 31.8075 19.5488 31.8075 19.7087C31.8075 19.7527 31.8165 19.7952 31.833 19.8354C31.8872 19.9671 31.9694 20.0941 31.9694 20.2365V20.5581C31.9694 20.6422 31.9012 20.7104 31.817 20.7104C31.7329 20.7104 31.6647 20.6422 31.6647 20.5581V18.7468C31.6647 18.6597 31.6791 18.5731 31.7073 18.4907C31.9512 17.7789 32.9579 17.7789 33.2019 18.4907C33.2301 18.5731 33.2445 18.6597 33.2445 18.7468V20.7101C33.2445 20.7103 33.2447 20.7104 33.2449 20.7104Z"/>
</mask>
<path d="M34.0722 20.7104C33.8937 20.7104 33.7489 20.5657 33.7489 20.3871V18.8613C33.7489 18.6573 33.7152 18.4547 33.649 18.2617L32.6657 15.3931C32.6332 15.2983 32.6167 15.1987 32.6167 15.0985V14.8295C32.6167 14.6488 32.7782 14.4867 32.7782 14.3061C32.7782 14.231 32.7398 14.1654 32.6799 14.1176C32.644 14.089 32.6167 14.0486 32.6167 14.0027C32.6167 13.9568 32.644 13.9164 32.6799 13.8878C32.7398 13.84 32.7782 13.7744 32.7782 13.6993C32.7782 13.695 32.7701 13.6947 32.7688 13.6988C32.7554 13.7413 32.7275 13.7795 32.6883 13.8084C32.6413 13.8431 32.5812 13.8619 32.5193 13.8611C32.3768 13.8611 32.2607 13.7646 32.2607 13.6457C32.2618 13.5923 32.2854 13.5411 32.3271 13.5018C32.3688 13.4624 32.4258 13.4376 32.4872 13.4321C32.4763 13.4318 32.4657 13.4297 32.4545 13.4297C32.276 13.4297 32.131 13.5502 32.131 13.6993C32.131 13.7745 32.1695 13.8402 32.2298 13.888C32.2658 13.9165 32.2932 13.9568 32.2932 14.0027C32.2932 14.0486 32.2658 14.089 32.2298 14.1175C32.1695 14.1653 32.131 14.2309 32.131 14.3061C32.131 14.487 32.2932 14.6491 32.2932 14.83V15.0988C32.2932 15.1988 32.2766 15.2982 32.2442 15.3928L31.2606 18.2617C31.1944 18.4547 31.1606 18.6573 31.1606 18.8614V20.3871C31.1606 20.5657 31.0159 20.7104 30.8373 20.7104C30.6587 20.7104 30.514 20.8552 30.514 21.0337V21.0778C30.514 21.1868 30.5624 21.2901 30.6461 21.3599L30.8373 21.5194C31.0422 21.6903 31.1606 21.9433 31.1606 22.2101V24.3527C31.1606 24.4162 31.1092 24.4676 31.0458 24.4676C30.9565 24.4676 30.9007 24.3696 30.9406 24.2897C31.0804 24.0096 31.1606 23.7144 31.1606 23.407C31.1606 22.2839 30.1353 21.178 28.7248 20.6026C27.306 20.0235 26.394 19.5294 25.9605 19.2756C25.8747 19.2254 25.8233 19.1331 25.8233 19.0337C25.8233 18.8995 25.9214 18.7892 26.0369 18.721C26.2013 18.6237 26.3087 18.4645 26.3087 18.2835C26.3087 18.1146 26.2149 17.9644 26.0685 17.8661C25.939 17.7791 25.8233 17.652 25.8233 17.496C25.8233 17.3238 25.9565 17.1835 26.1236 17.1422C26.7911 16.9772 27.2791 16.4669 27.2791 15.8566C27.2791 15.8344 27.2387 15.8331 27.2322 15.8543C27.0902 16.3203 26.5883 16.6656 25.9849 16.6656C25.2703 16.6656 24.6914 16.1826 24.6914 15.5869C24.6914 15.0844 25.105 14.6664 25.6631 14.5474C25.6818 14.5434 25.6809 14.5083 25.6618 14.5083C24.7687 14.5083 24.0441 15.1121 24.0441 15.8566C24.0441 16.4666 24.5322 16.9769 25.1995 17.1421C25.3667 17.1835 25.4999 17.3238 25.4999 17.4961C25.4999 17.652 25.3843 17.7792 25.2548 17.8662C25.1083 17.9646 25.0145 18.1147 25.0145 18.2835C25.0145 18.4645 25.1219 18.6237 25.2863 18.721C25.4018 18.7892 25.4999 18.8995 25.4999 19.0337C25.4999 19.1331 25.4485 19.2254 25.3627 19.2756C24.9292 19.5294 24.0172 20.0235 22.5984 20.6026C21.1882 21.178 20.1626 22.2839 20.1626 23.407C20.1626 23.7144 20.2428 24.0094 20.3827 24.2897C20.4226 24.3696 20.3668 24.4676 20.2775 24.4676C20.214 24.4676 20.1626 24.4161 20.1626 24.3527V22.2101C20.1626 21.9433 20.281 21.6903 20.4859 21.5194L20.6771 21.3599C20.7608 21.2901 20.8092 21.1868 20.8092 21.0778V21.0337C20.8092 20.8552 20.6645 20.7104 20.4859 20.7104C20.3073 20.7104 20.1626 20.5657 20.1626 20.3871V18.8613C20.1626 18.6573 20.1288 18.4547 20.0627 18.2617L19.0793 15.3927C19.0469 15.2981 19.0303 15.1988 19.0303 15.0989V14.83C19.0303 14.6491 19.1925 14.487 19.1925 14.3061C19.1925 14.2309 19.154 14.1653 19.0937 14.1175C19.0577 14.089 19.0303 14.0486 19.0303 14.0027C19.0303 13.9568 19.0577 13.9165 19.0937 13.888C19.154 13.8402 19.1925 13.7745 19.1925 13.6993C19.1925 13.695 19.1843 13.6946 19.183 13.6988C19.1695 13.7412 19.1415 13.7794 19.1024 13.8082C19.0554 13.8429 18.9955 13.8617 18.9336 13.8611C18.7908 13.8611 18.675 13.7646 18.675 13.6457C18.6761 13.5923 18.6997 13.5411 18.7414 13.5018C18.7831 13.4624 18.8401 13.4376 18.9015 13.4321C18.8903 13.4318 18.88 13.4297 18.8691 13.4297C18.6897 13.4297 18.5456 13.5502 18.5456 13.6993C18.5456 13.7745 18.584 13.8401 18.6442 13.8879C18.6801 13.9164 18.7075 13.9568 18.7075 14.0027C18.7075 14.0487 18.6799 14.0892 18.6438 14.1178C18.5838 14.1655 18.5456 14.2311 18.5456 14.3061C18.5456 14.4869 18.7075 14.6489 18.7075 14.8297V15.0987C18.7075 15.1988 18.6909 15.2982 18.6584 15.3929L17.6749 18.2617C17.6087 18.4547 17.5749 18.6573 17.5749 18.8614V20.387C17.5749 20.5656 17.4301 20.7104 17.2514 20.7104C17.0728 20.7104 16.928 20.8553 16.928 21.0339V21.0778C16.928 21.1867 16.9764 21.2901 17.0601 21.3599L17.2514 21.5194C17.4564 21.6903 17.5749 21.9433 17.5749 22.2102V24.627C17.5749 27.9743 20.2884 30.6878 23.6356 30.6878H27.6876C31.0352 30.6878 33.7489 27.974 33.7489 24.6264V22.2101C33.7489 21.9433 33.8674 21.6903 34.0722 21.5194L34.2635 21.3599C34.3472 21.2901 34.3955 21.1868 34.3955 21.0778V21.0337C34.3955 20.8552 34.2508 20.7104 34.0722 20.7104ZM19.6588 30.256C18.7861 30.256 18.0787 29.5486 18.0787 28.6758V22.579C18.0787 22.1427 18.4323 21.7891 18.8686 21.7891C19.3049 21.7891 19.6585 22.1427 19.6585 22.579V30.2557C19.6585 30.2559 19.6587 30.256 19.6588 30.256ZM19.6588 20.7104C19.4905 20.7104 19.3541 20.574 19.3541 20.4057V20.2362C19.3541 20.094 19.4361 19.9671 19.4904 19.8356C19.507 19.7954 19.516 19.7528 19.516 19.7087C19.516 19.5485 19.3953 19.3902 19.2293 19.3085C19.0098 19.1996 18.7279 19.1995 18.5085 19.3085C18.3425 19.3905 18.2221 19.5488 18.2221 19.7087C18.2221 19.7527 18.231 19.7951 18.2475 19.8353C18.3015 19.9671 18.3837 20.0941 18.3837 20.2365V20.5579C18.3837 20.6421 18.3154 20.7104 18.2312 20.7104C18.1469 20.7104 18.0787 20.6421 18.0787 20.5579V18.7468C18.0787 18.6597 18.0931 18.5731 18.1213 18.4907C18.3653 17.7789 19.372 17.7789 19.6159 18.4907C19.6441 18.5731 19.6585 18.6597 19.6585 18.7468V20.7101C19.6585 20.7103 19.6587 20.7104 19.6588 20.7104ZM20.1691 27.5774C20.1691 26.0982 21.3683 24.899 22.8475 24.899H28.4762C29.9555 24.899 31.1547 26.0982 31.1547 27.5775V28.3185C31.1547 29.3886 30.2872 30.256 29.2172 30.256H27.836C27.5287 30.256 27.2797 30.007 27.2797 29.6997C27.2797 29.564 27.3334 29.4356 27.4073 29.3218C27.5351 29.1247 27.6025 28.9075 27.6025 28.6845C27.6025 28.1832 27.2538 27.6873 26.7132 27.4195C26.3417 27.2365 26.1441 27.0894 26.1172 27.069C26.115 27.0673 26.113 27.0657 26.1108 27.0639C25.8501 26.8545 25.4755 26.8561 25.2132 27.0636C25.211 27.0655 25.0123 27.2213 24.6096 27.4198C24.07 27.687 23.721 28.1829 23.721 28.6842C23.721 28.9071 23.7883 29.1244 23.9163 29.3214C23.9903 29.4353 24.0441 29.5639 24.0441 29.6998C24.0441 30.0068 23.7952 30.2558 23.4881 30.2558H22.1066C21.0366 30.2558 20.1691 29.3883 20.1691 28.3183V27.5774ZM24.6914 30.256V29.9987C24.6914 29.55 24.3682 29.1331 24.3682 28.6845C24.3682 28.3639 24.6087 28.0478 24.9406 27.8833C25.3799 27.6663 25.9439 27.6665 26.3832 27.8836C26.7148 28.0478 26.9556 28.3638 26.9556 28.6847C26.9556 28.818 26.9146 28.9449 26.8417 29.0593C26.7355 29.2261 26.6321 29.4046 26.6321 29.6023C26.6321 29.9635 26.3393 30.2563 25.9782 30.2563H24.6916C24.6915 30.2563 24.6914 30.2562 24.6914 30.256ZM33.2449 29.4661C33.2449 29.9024 32.8912 30.256 32.4549 30.256C32.0186 30.256 31.665 29.9024 31.665 29.4661V22.579C31.665 22.1427 32.0186 21.7891 32.4549 21.7891C32.8912 21.7891 33.2449 22.1427 33.2449 22.579V29.4661ZM33.2449 20.7104C33.0766 20.7104 32.9401 20.574 32.9401 20.4057V20.2362C32.9401 20.094 33.0221 19.9671 33.0764 19.8356C33.093 19.7954 33.102 19.7528 33.102 19.7087C33.102 19.5485 32.9813 19.3902 32.8153 19.3085C32.5958 19.1997 32.3136 19.1995 32.0942 19.3085C31.9282 19.3905 31.8075 19.5488 31.8075 19.7087C31.8075 19.7527 31.8165 19.7952 31.833 19.8354C31.8872 19.9671 31.9694 20.0941 31.9694 20.2365V20.5581C31.9694 20.6422 31.9012 20.7104 31.817 20.7104C31.7329 20.7104 31.6647 20.6422 31.6647 20.5581V18.7468C31.6647 18.6597 31.6791 18.5731 31.7073 18.4907C31.9512 17.7789 32.9579 17.7789 33.2019 18.4907C33.2301 18.5731 33.2445 18.6597 33.2445 18.7468V20.7101C33.2445 20.7103 33.2447 20.7104 33.2449 20.7104Z" fill="white" stroke="white" stroke-width="4" mask="url(#path-2-inside-1)"/>
</g>
<defs>
<filter id="filter0_d" x="0" y="0" width="53" height="53" filterUnits="userSpaceOnUse" color-interpolation-filters="sRGB">
<feFlood flood-opacity="0" result="BackgroundImageFix"/>
<feColorMatrix in="SourceAlpha" type="matrix" values="0 0 0 0 0 0 0 0 0 0 0 0 0 0 0 0 0 0 127 0"/>
<feOffset dy="4"/>
<feGaussianBlur stdDeviation="2"/>
<feColorMatrix type="matrix" values="0 0 0 0 0 0 0 0 0 0 0 0 0 0 0 0 0 0 0.25 0"/>
<feBlend mode="normal" in2="BackgroundImageFix" result="effect1_dropShadow"/>
<feBlend mode="normal" in="SourceGraphic" in2="effect1_dropShadow" result="shape"/>
</filter>
</defs>
</svg>
