<svg width="53" height="53" viewBox="0 0 53 53" fill="none" xmlns="http://www.w3.org/2000/svg">
<g filter="url(#filter0_d)">
<rect x="5" y="1" width="43" height="43" rx="21.5" fill="#0F2B55" stroke="#8896A8" stroke-width="2"/>
<path d="M14.2856 23.8718C14.2856 19.7029 17.6653 16.3232 21.8342 16.3232H29.8799C34.0489 16.3232 37.4285 19.7029 37.4285 23.8718C37.4285 28.0408 34.0489 31.4204 29.8799 31.4204H21.8342C17.6653 31.4204 14.2856 28.0408 14.2856 23.8718ZM29.5786 29.4075C32.6358 29.4075 35.1142 26.9291 35.1142 23.8718C35.1142 20.8146 32.6358 18.3362 29.5786 18.3362H22.1356C19.0783 18.3362 16.5999 20.8146 16.5999 23.8718C16.5999 26.9291 19.0783 29.4075 22.1356 29.4075H29.5786ZM30.0168 19.3427C30.9148 19.3427 31.6431 20.1767 32.3206 20.7661C33.061 21.41 33.9571 22.151 33.9571 23.1322V24.6114C33.9571 25.5926 33.061 26.3337 32.3206 26.9776C31.6431 27.567 30.9148 28.401 30.0168 28.401H21.6974C20.7994 28.401 20.0711 27.567 19.3935 26.9776C18.6532 26.3337 17.7571 25.5926 17.7571 24.6114V23.1322C17.7571 22.151 18.6532 21.41 19.3935 20.7661C20.0711 20.1767 20.7994 19.3427 21.6974 19.3427H30.0168ZM31.6428 24.3751V23.3686C31.6428 22.2615 30.8675 21.3556 29.9071 21.3556C28.9467 21.3556 28.1714 22.2615 28.1714 23.3686V24.3751C28.1714 25.4822 28.9467 26.388 29.9071 26.388C30.8675 26.388 31.6428 25.4822 31.6428 24.3751ZM29.9071 22.3621C30.0605 22.3621 30.2077 22.4151 30.3162 22.5095C30.4247 22.6039 30.4857 22.7319 30.4857 22.8654V24.8783C30.4857 25.0118 30.4247 25.1398 30.3162 25.2342C30.2077 25.3285 30.0605 25.3815 29.9071 25.3815C29.7536 25.3815 29.6065 25.3285 29.498 25.2342C29.3895 25.1398 29.3285 25.0118 29.3285 24.8783V22.8654C29.3285 22.7319 29.3895 22.6039 29.498 22.5095C29.6065 22.4151 29.7536 22.3621 29.9071 22.3621ZM27.0142 24.3751V23.3686C27.0142 22.2615 26.2389 21.3556 25.2785 21.3556C24.3181 21.3556 23.5428 22.2615 23.5428 23.3686V24.3751C23.5428 25.4822 24.3181 26.388 25.2785 26.388C26.2389 26.388 27.0142 25.4822 27.0142 24.3751ZM25.2785 22.3621C25.432 22.3621 25.5791 22.4151 25.6876 22.5095C25.7961 22.6039 25.8571 22.7319 25.8571 22.8654V24.8783C25.8571 25.0118 25.7961 25.1398 25.6876 25.2342C25.5791 25.3285 25.432 25.3815 25.2785 25.3815C25.1251 25.3815 24.9779 25.3285 24.8694 25.2342C24.7609 25.1398 24.6999 25.0118 24.6999 24.8783V22.8654C24.6999 22.7319 24.7609 22.6039 24.8694 22.5095C24.9779 22.4151 25.1251 22.3621 25.2785 22.3621ZM21.2285 25.8095C21.2285 26.129 21.4875 26.388 21.8071 26.388C22.1266 26.388 22.3857 26.129 22.3857 25.8095V22.3135C22.3857 21.7845 21.9568 21.3556 21.4278 21.3556C21.2963 21.3556 21.1663 21.3827 21.0458 21.4351L20.3488 21.7382C20.1803 21.8115 20.0714 21.9777 20.0714 22.1614V22.2344C20.0714 22.5323 20.3768 22.7325 20.6499 22.6137C20.9231 22.4949 21.2285 22.6951 21.2285 22.993V25.8095Z" fill="#F6F8FB"/>
<path d="M37.4287 11.2907C37.4287 11.7076 37.0907 12.0455 36.6738 12.0455H36.3438C35.7447 12.0455 35.259 12.5312 35.259 13.1303V13.5869C35.259 13.9863 34.9352 14.3101 34.5358 14.3101C34.1364 14.3101 33.8126 13.9863 33.8126 13.5869V13.1303C33.8126 12.5312 33.3269 12.0455 32.7278 12.0455H32.3978C31.9809 12.0455 31.6429 11.7076 31.6429 11.2907C31.6429 10.8738 31.9809 10.5358 32.3978 10.5358H32.7278C33.3269 10.5358 33.8126 10.0501 33.8126 9.45098V8.99445C33.8126 8.59503 34.1364 8.27124 34.5358 8.27124C34.9352 8.27124 35.259 8.59503 35.259 8.99445V9.45098C35.259 10.0501 35.7447 10.5358 36.3438 10.5358H36.6738C37.0907 10.5358 37.4287 10.8738 37.4287 11.2907Z" fill="#0F2B55"/>
<path d="M30.4858 11.2907C30.4858 11.7076 30.1479 12.0455 29.731 12.0455H29.0145C28.3892 12.0455 27.8823 12.5524 27.8823 13.1778V13.4422C27.8823 13.9215 27.4937 14.3101 27.0144 14.3101C26.5351 14.3101 26.1465 13.9215 26.1465 13.4422V13.1778C26.1465 12.5524 25.6396 12.0455 25.0143 12.0455H24.2978C23.8809 12.0455 23.543 11.7076 23.543 11.2907C23.543 10.8738 23.8809 10.5358 24.2978 10.5358H25.0143C25.6396 10.5358 26.1465 10.0289 26.1465 9.40352V9.1391C26.1465 8.65979 26.5351 8.27124 27.0144 8.27124C27.4937 8.27124 27.8823 8.65979 27.8823 9.1391V9.40352C27.8823 10.0289 28.3892 10.5358 29.0145 10.5358H29.731C30.1479 10.5358 30.4858 10.8738 30.4858 11.2907Z" fill="#E6E7E9"/>
</g>
<defs>
<filter id="filter0_d" x="0" y="0" width="53" height="53" filterUnits="userSpaceOnUse" color-interpolation-filters="sRGB">
<feFlood flood-opacity="0" result="BackgroundImageFix"/>
<feColorMatrix in="SourceAlpha" type="matrix" values="0 0 0 0 0 0 0 0 0 0 0 0 0 0 0 0 0 0 127 0"/>
<feOffset dy="4"/>
<feGaussianBlur stdDeviation="2"/>
<feColorMatrix type="matrix" values="0 0 0 0 0 0 0 0 0 0 0 0 0 0 0 0 0 0 0.25 0"/>
<feBlend mode="normal" in2="BackgroundImageFix" result="effect1_dropShadow"/>
<feBlend mode="normal" in="SourceGraphic" in2="effect1_dropShadow" result="shape"/>
</filter>
</defs>
</svg>
