<svg width="53" height="53" viewBox="0 0 53 53" fill="none" xmlns="http://www.w3.org/2000/svg">
<g filter="url(#filter0_d)">
<rect x="5" y="1" width="43" height="43" rx="21.5" fill="#0F2B55" stroke="#6D8597" stroke-width="2"/>
<path d="M20.4908 30.2713C19.3446 30.6586 18.1036 30.0481 17.7158 28.9138C17.328 27.7794 17.9378 26.5434 19.084 26.1561C20.2301 25.7687 21.4712 26.3792 21.859 27.5136C22.2468 28.6479 21.637 29.8839 20.4908 30.2713Z" fill="#FFEC89" stroke="#F7F7F7"/>
<path d="M32.2379 30.7493C31.0917 31.1366 29.8506 30.5262 29.4628 29.3918C29.075 28.2575 29.6849 27.0214 30.831 26.6341C31.9772 26.2467 33.2183 26.8572 33.6061 27.9916C33.9939 29.1259 33.384 30.3619 32.2379 30.7493Z" fill="#FFEC89" stroke="#F7F7F7"/>
<path d="M31.9158 24.0674C30.7697 24.4548 29.5286 23.8443 29.1408 22.7099C28.753 21.5756 29.3629 20.3396 30.509 19.9522C31.6552 19.5649 32.8963 20.1753 33.284 21.3097C33.6718 22.444 33.062 23.6801 31.9158 24.0674Z" fill="#FFEC89" stroke="#F7F7F7"/>
<path d="M23.6637 15.8201L23.1015 14.0045L16.9087 17.2046L18.2831 18.6005L18.8922 18.2857M23.6637 15.8201L18.8922 18.2857M23.6637 15.8201L23.9526 16.3728L23.1771 16.8627M18.8922 18.2857L19.3692 19.1982L19.9776 18.8838M23.1771 16.8627C24.3116 19.2054 24.1022 17.8169 26.7745 20.4427M23.1771 16.8627L19.9776 18.8838M26.7745 20.4427C27.0989 21.3917 28.2752 23.5032 28.1804 24.5551L27.8859 27.8784C27.5431 28.3098 27.3066 28.1592 26.0545 26.38M26.7745 20.4427L27.4359 24.4538C27.4359 24.4538 27.531 25.3297 27.3271 25.9499C27.1233 26.57 26.8052 27.5378 26.8052 27.5378C25.9893 28.0108 25.9952 27.4559 26.0545 26.38M19.9776 18.8838L20.4912 19.8664C21.3463 20.9134 21.4163 23.7128 21.9821 24.2274C22.7588 24.9338 23.0703 24.9183 23.6048 25.4434C24.1392 25.9686 24.6763 27.1311 25.4092 27.0533C25.6608 27.2377 26.0286 26.0118 26.0545 26.38" stroke="#F7F7F7"/>
<path d="M25.2496 27.1843C25.521 26.8689 25.9286 26.302 25.622 25.1146C25.3154 23.9272 23.6594 22.8799 23.2679 22.3813L23.0552 21.484" stroke="#F7F7F7"/>
</g>
<defs>
<filter id="filter0_d" x="0" y="0" width="53" height="53" filterUnits="userSpaceOnUse" color-interpolation-filters="sRGB">
<feFlood flood-opacity="0" result="BackgroundImageFix"/>
<feColorMatrix in="SourceAlpha" type="matrix" values="0 0 0 0 0 0 0 0 0 0 0 0 0 0 0 0 0 0 127 0"/>
<feOffset dy="4"/>
<feGaussianBlur stdDeviation="2"/>
<feColorMatrix type="matrix" values="0 0 0 0 0 0 0 0 0 0 0 0 0 0 0 0 0 0 0.25 0"/>
<feBlend mode="normal" in2="BackgroundImageFix" result="effect1_dropShadow"/>
<feBlend mode="normal" in="SourceGraphic" in2="effect1_dropShadow" result="shape"/>
</filter>
</defs>
</svg>
