<svg width="53" height="53" viewBox="0 0 53 53" fill="none" xmlns="http://www.w3.org/2000/svg">
<g filter="url(#filter0_d)">
<rect x="5" y="1" width="43" height="43" rx="21.5" fill="#0F2B55" stroke="#6D8597" stroke-width="2"/>
<path d="M34.9275 11.0811H16.679C16.3259 11.0811 16.0204 11.1776 15.7625 11.3706C15.5045 11.5636 15.3755 11.7922 15.3755 12.0564V25.7109C15.3755 25.975 15.5045 26.2036 15.7625 26.3966C16.0204 26.5897 16.3259 26.6862 16.679 26.6862H34.9275C35.2805 26.6862 35.586 26.5897 35.844 26.3966C36.102 26.2036 36.231 25.975 36.231 25.7109V12.0564C36.231 11.8837 36.1733 11.7211 36.0579 11.5687C35.9424 11.4163 35.7829 11.2969 35.5792 11.2106C35.3756 11.1242 35.1583 11.0811 34.9275 11.0811ZM34.9275 25.7109H16.679V12.0564H34.9275V25.7109ZM19.9376 16.4453H21.2411V17.4206C21.2411 17.5629 21.3056 17.6797 21.4346 17.7711C21.5636 17.8626 21.7163 17.9083 21.8928 17.9083C22.0693 17.9083 22.2221 17.8626 22.3511 17.7711C22.4801 17.6797 22.5446 17.5629 22.5446 17.4206V16.4453H23.848C24.0245 16.4453 24.1773 16.3996 24.3063 16.3082C24.4353 16.2167 24.4998 16.1024 24.4998 15.9653C24.4998 15.8281 24.4353 15.7113 24.3063 15.6148C24.1773 15.5183 24.0245 15.47 23.848 15.47H22.5446V14.4947C22.5446 14.3626 22.4801 14.2483 22.3511 14.1518C22.2221 14.0553 22.0693 14.007 21.8928 14.007C21.7163 14.007 21.5636 14.0553 21.4346 14.1518C21.3056 14.2483 21.2411 14.3626 21.2411 14.4947V15.47H19.9376C19.7611 15.47 19.6084 15.5183 19.4794 15.6148C19.3504 15.7113 19.2859 15.8281 19.2859 15.9653C19.2859 16.1024 19.3504 16.2167 19.4794 16.3082C19.6084 16.3996 19.7611 16.4453 19.9376 16.4453ZM24.2044 20.0952C24.0755 19.9986 23.9193 19.9504 23.736 19.9504C23.5527 19.9504 23.4 19.9961 23.2778 20.0875L21.8928 21.1238L20.5079 20.0875C20.3857 19.9961 20.2329 19.9504 20.0496 19.9504C19.8663 19.9504 19.7102 19.9986 19.5812 20.0952C19.4522 20.1917 19.3877 20.306 19.3877 20.438C19.3877 20.5701 19.4556 20.6819 19.5914 20.7733L20.9763 21.8096L19.5914 22.8459C19.5099 22.9068 19.4522 22.9805 19.4183 23.0668C19.3843 23.1532 19.3843 23.237 19.4183 23.3183C19.4522 23.3996 19.5099 23.4707 19.5914 23.5316C19.6457 23.5824 19.7136 23.6205 19.7951 23.6459C19.8765 23.6713 19.9614 23.684 20.0496 23.684C20.1379 23.684 20.2228 23.6713 20.3042 23.6459C20.3857 23.6205 20.4536 23.5824 20.5079 23.5316L21.8928 22.5106L23.2778 23.5316C23.3321 23.5824 23.4 23.6205 23.4814 23.6459C23.5629 23.6713 23.6478 23.684 23.736 23.684C23.8243 23.684 23.9091 23.6713 23.9906 23.6459C24.0721 23.6205 24.1399 23.5824 24.1943 23.5316C24.5065 23.3081 24.5065 23.0795 24.1943 22.8459L22.8093 21.8096L24.1943 20.7733C24.33 20.6819 24.3979 20.5701 24.3979 20.438C24.3979 20.306 24.3334 20.1917 24.2044 20.0952ZM27.7584 16.4453H31.6688C31.8453 16.4453 31.9981 16.3996 32.1271 16.3082C32.2561 16.2167 32.3206 16.1024 32.3206 15.9653C32.3206 15.8281 32.2561 15.7113 32.1271 15.6148C31.9981 15.5183 31.8453 15.47 31.6688 15.47H27.7584C27.5819 15.47 27.4292 15.5183 27.3002 15.6148C27.1712 15.7113 27.1067 15.8281 27.1067 15.9653C27.1067 16.1024 27.1712 16.2167 27.3002 16.3082C27.4292 16.3996 27.5819 16.4453 27.7584 16.4453ZM27.7584 21.3219H31.6688C31.8453 21.3219 31.9981 21.2762 32.1271 21.1848C32.2561 21.0933 32.3206 20.979 32.3206 20.8419C32.3206 20.7047 32.2561 20.5879 32.1271 20.4914C31.9981 20.3949 31.8453 20.3466 31.6688 20.3466H27.7584C27.5819 20.3466 27.4292 20.3949 27.3002 20.4914C27.1712 20.5879 27.1067 20.7047 27.1067 20.8419C27.1067 20.979 27.1712 21.0933 27.3002 21.1848C27.4292 21.2762 27.5819 21.3219 27.7584 21.3219ZM27.7584 23.2726H31.6688C31.8453 23.2726 31.9981 23.2268 32.1271 23.1354C32.2561 23.044 32.3206 22.9297 32.3206 22.7925C32.3206 22.6554 32.2561 22.5385 32.1271 22.442C31.9981 22.3455 31.8453 22.2972 31.6688 22.2972H27.7584C27.5819 22.2972 27.4292 22.3455 27.3002 22.442C27.1712 22.5385 27.1067 22.6554 27.1067 22.7925C27.1067 22.9297 27.1712 23.044 27.3002 23.1354C27.4292 23.2268 27.5819 23.2726 27.7584 23.2726Z" fill="#FFFDFD"/>
<path d="M26.8233 40.0546L26.6157 42.3869L20.7988 37.783L21.7694 36.0544L22.3415 36.5073M26.8233 40.0546L22.3415 36.5073M26.8233 40.0546L26.9879 39.3526L26.246 38.6597M22.3415 36.5073L22.6132 35.3484L23.1847 35.8007M26.246 38.6597C26.4345 36.794 26.9401 35.2891 29.3456 31.7074C29.2032 30.8941 29.0112 31.2049 28.7695 29.8247L27.5063 20.2647C27.0309 19.8236 26.8134 20.1218 26.7769 24.5619C26.8106 25.041 26.8053 25.2817 26.6168 25.5052C25.9741 25.3532 25.8095 26.0552 25.9075 27.0839C25.8031 28.4348 25.6968 29.1379 24.9631 29.6654C23.4674 30.7405 23.1383 32.1445 23.4773 34.5528L23.1847 35.8007M26.246 38.6597L23.1847 35.8007" stroke="#FCFEFF"/>
<path d="M26.4594 25.323C26.7409 25.7536 27.2831 26.9971 27.1998 28.5266C27.1166 30.0562 26.5736 31.6872 26.3125 32.3115L25.4378 32.6163" stroke="#FCFEFF"/>
<path d="M26.8555 25.6365C26.6006 25.6393 26.4505 25.5974 26.2774 26.0996L26.4186 27.5003C26.9097 27.5255 27.0682 27.359 27.2016 26.8311L26.8555 25.6365Z" fill="white" stroke="#FCFEFF"/>
<path d="M27.9181 20.5859C27.7613 20.4618 27.5763 20.7222 27.5143 20.8211L28.7668 29.3582C28.8502 29.4982 29.0595 30.5885 29.1253 30.3077C29.1744 30.0984 28.1142 20.7411 27.9181 20.5859Z" stroke="#FCFEFF"/>
</g>
<defs>
<filter id="filter0_d" x="0" y="0" width="53" height="53" filterUnits="userSpaceOnUse" color-interpolation-filters="sRGB">
<feFlood flood-opacity="0" result="BackgroundImageFix"/>
<feColorMatrix in="SourceAlpha" type="matrix" values="0 0 0 0 0 0 0 0 0 0 0 0 0 0 0 0 0 0 127 0"/>
<feOffset dy="4"/>
<feGaussianBlur stdDeviation="2"/>
<feColorMatrix type="matrix" values="0 0 0 0 0 0 0 0 0 0 0 0 0 0 0 0 0 0 0.25 0"/>
<feBlend mode="normal" in2="BackgroundImageFix" result="effect1_dropShadow"/>
<feBlend mode="normal" in="SourceGraphic" in2="effect1_dropShadow" result="shape"/>
</filter>
</defs>
</svg>
