<svg width="53" height="53" viewBox="0 0 53 53" fill="none" xmlns="http://www.w3.org/2000/svg">
<g filter="url(#filter0_d)">
<rect x="5.00012" y="1" width="42.9711" height="43" rx="21.4856" fill="#0F2B55" stroke="#818E91" stroke-width="2"/>
<path d="M13.554 30.0051V30.0051C12.2386 30.3774 10.9318 29.3892 10.9318 28.0221V17.7214C10.9318 16.7598 11.9326 16.1253 12.8023 16.5357V16.5357C13.2612 16.7522 13.554 17.214 13.554 17.7214V18.375M13.554 30.0051V18.375M13.554 30.0051V30.0051C14.0444 30.0051 14.4495 29.622 14.477 29.1324L14.539 28.0255M13.554 18.375V18.375C14.3509 18.375 14.997 19.0211 14.997 19.818V19.8581M14.539 28.0255C16.3373 27.5627 18.0522 27.7346 22.0621 29.8995C23.4658 30.6574 24.7826 30.1381 25.9158 29.0153V29.0153L30.9346 24.7331C33.4706 22.5694 33.6804 20.1886 30.6417 21.5595C30.4355 21.6526 30.2196 21.7515 29.9935 21.8566C29.8579 21.9196 29.6774 22.0297 29.5482 22.105V22.105C28.9793 22.4368 28.6735 21.6666 28.2386 21.1721C27.9838 20.8823 27.6635 20.8046 27.303 20.8887C26.6556 21.0399 26.0974 21.4762 25.4448 21.6033C24.4985 21.7876 23.8068 21.6206 22.919 20.602C21.0036 18.4044 19.4951 17.9811 17.8021 18.9405C16.9309 19.4342 15.9984 19.8581 14.997 19.8581V19.8581M14.539 28.0255L14.997 19.8581" stroke="white"/>
<path d="M28.7237 21.6492C28.5055 22.4863 27.6502 24.3112 25.9746 24.9139C25.1244 25.2197 24.1484 25.2798 23.2791 25.2321C21.9665 25.1599 20.8874 24.2853 20.2146 23.156V23.156" stroke="white"/>
<path d="M28.3601 21.9379C28.3508 21.9279 28.3413 21.9181 28.3315 21.9085C28.0396 21.624 27.5725 21.7895 27.2478 22.036C26.7446 22.4181 26.4761 23.1273 26.8586 23.6302C26.8993 23.6837 26.9411 23.7309 26.9844 23.7723C27.364 24.1353 27.9415 23.7864 28.2443 23.3573C28.5429 22.9341 28.7116 22.3183 28.3601 21.9379Z" fill="#0F2B55" stroke="white"/>
<path d="M25.7048 30.0434C25.9654 30.0434 34.9118 22.921 34.9118 22.4123C34.9118 21.8095 34.0292 21.9186 33.5809 22.3215L27.562 27.7309C26.8044 28.4117 24.6862 30.0434 25.7048 30.0434Z" stroke="white"/>
<path d="M41.7646 18.6207V18.6207C42.9147 18.2611 44.1445 19.039 44.3282 20.2424L45.04 24.9061C45.1568 25.671 44.4985 26.3061 43.7332 26.1693V26.1693C43.2351 26.0803 42.8421 25.6795 42.7661 25.1818V25.1818M41.7646 18.6207L42.7661 25.1818M41.7646 18.6207V18.6207C41.3358 18.6721 41.0283 19.0431 41.0567 19.4748L41.0807 19.8399M42.7661 25.1818L42.351 25.2315C41.889 25.2868 41.4573 24.9571 41.3868 24.4951V24.4951M41.0807 19.8399C39.5135 20.3018 37.965 20.3738 34.0456 19.4867C32.9054 19.2286 31.9981 19.726 31.1277 20.4637V20.4637L27.9419 22.8123C25.4728 24.6326 25.5644 26.1028 28.3784 24.8501V24.8501V24.8501C28.9392 24.515 29.4916 25.1793 30.154 25.2419C30.3727 25.2626 30.6102 25.2139 30.8578 25.1109C31.2052 24.9665 31.5346 24.7782 31.8968 24.6722C32.8451 24.3946 33.4979 24.3623 34.4515 24.8986C36.2449 25.9071 37.5633 26.0154 38.9043 25.3684C39.6979 24.9856 40.5037 24.6009 41.3868 24.4951V24.4951M41.0807 19.8399L41.3868 24.4951" stroke="white"/>
<path d="M29.3271 24.9113C29.4443 24.4164 30.0289 23.298 31.4304 22.7839C32.2756 22.4738 33.3048 22.3411 34.1595 22.2957C35.0392 22.2491 35.8899 22.604 36.5778 23.1771V23.1771" stroke="white"/>
<path d="M29.844 24.7862C29.8536 24.788 29.8635 24.7897 29.8735 24.7913C30.0628 24.8218 30.2493 24.7556 30.4057 24.6518C30.8671 24.3455 31.0027 23.5765 30.4473 23.4671C30.4129 23.4603 30.3776 23.4552 30.3411 23.4516C30.0959 23.4274 29.8734 23.562 29.72 23.748C29.4393 24.0883 29.4 24.7027 29.844 24.7862Z" fill="#0F2B55" stroke="white"/>
<path d="M31.2223 19.8622C30.9962 19.8892 23.8499 24.837 23.8937 25.124C23.9615 25.568 24.6662 25.3381 25.0154 25.0681L29.9008 21.29C30.4378 20.8747 31.9052 19.7804 31.2223 19.8622Z" stroke="white"/>
</g>
<defs>
<filter id="filter0_d" x="0.00012207" y="0" width="52.9711" height="53" filterUnits="userSpaceOnUse" color-interpolation-filters="sRGB">
<feFlood flood-opacity="0" result="BackgroundImageFix"/>
<feColorMatrix in="SourceAlpha" type="matrix" values="0 0 0 0 0 0 0 0 0 0 0 0 0 0 0 0 0 0 127 0"/>
<feOffset dy="4"/>
<feGaussianBlur stdDeviation="2"/>
<feColorMatrix type="matrix" values="0 0 0 0 0 0 0 0 0 0 0 0 0 0 0 0 0 0 0.25 0"/>
<feBlend mode="normal" in2="BackgroundImageFix" result="effect1_dropShadow"/>
<feBlend mode="normal" in="SourceGraphic" in2="effect1_dropShadow" result="shape"/>
</filter>
</defs>
</svg>
