<svg width="53" height="67" viewBox="0 0 53 67" fill="none" xmlns="http://www.w3.org/2000/svg">
<g filter="url(#filter0_d)">
<path d="M13.5 56.1348C13.5 55.8581 13.4023 55.6465 13.207 55.5C13.0117 55.3503 12.6602 55.194 12.1523 55.0312C11.6445 54.8652 11.2425 54.7025 10.9463 54.543C10.139 54.1068 9.73535 53.5192 9.73535 52.7803C9.73535 52.3962 9.84277 52.0544 10.0576 51.7549C10.2757 51.4521 10.5866 51.2161 10.9902 51.0469C11.3971 50.8776 11.8529 50.793 12.3574 50.793C12.8652 50.793 13.3177 50.8857 13.7148 51.0713C14.112 51.2536 14.4196 51.5124 14.6377 51.8477C14.859 52.1829 14.9697 52.5638 14.9697 52.9902H13.5049C13.5049 52.6647 13.4023 52.4124 13.1973 52.2334C12.9922 52.0511 12.7041 51.96 12.333 51.96C11.9749 51.96 11.6966 52.0365 11.498 52.1895C11.2995 52.3392 11.2002 52.5378 11.2002 52.7852C11.2002 53.0163 11.3158 53.21 11.5469 53.3662C11.7812 53.5225 12.1247 53.6689 12.5771 53.8057C13.4105 54.0563 14.0176 54.3672 14.3984 54.7383C14.7793 55.1094 14.9697 55.5716 14.9697 56.125C14.9697 56.7402 14.737 57.2236 14.2715 57.5752C13.806 57.9235 13.1794 58.0977 12.3916 58.0977C11.8447 58.0977 11.3467 57.9984 10.8975 57.7998C10.4482 57.598 10.1048 57.3229 9.86719 56.9746C9.63281 56.6263 9.51562 56.2227 9.51562 55.7637H10.9854C10.9854 56.5482 11.4541 56.9404 12.3916 56.9404C12.7399 56.9404 13.0117 56.8704 13.207 56.7305C13.4023 56.5872 13.5 56.3887 13.5 56.1348ZM18.3047 58.0977C17.5299 58.0977 16.8984 57.86 16.4102 57.3848C15.9251 56.9095 15.6826 56.2764 15.6826 55.4854V55.3486C15.6826 54.818 15.7852 54.3444 15.9902 53.9277C16.1953 53.5078 16.485 53.1855 16.8594 52.9609C17.237 52.7331 17.6667 52.6191 18.1484 52.6191C18.8711 52.6191 19.4391 52.847 19.8525 53.3027C20.2692 53.7585 20.4775 54.4046 20.4775 55.2412V55.8174H17.1133C17.1589 56.1624 17.2956 56.4391 17.5234 56.6475C17.7546 56.8558 18.0459 56.96 18.3975 56.96C18.9411 56.96 19.3659 56.763 19.6719 56.3691L20.3652 57.1455C20.1536 57.445 19.8672 57.6794 19.5059 57.8486C19.1445 58.0146 18.7441 58.0977 18.3047 58.0977ZM18.1436 53.7617C17.8636 53.7617 17.6357 53.8561 17.46 54.0449C17.2874 54.2337 17.1768 54.5039 17.1279 54.8555H19.0908V54.7432C19.0843 54.4307 18.9997 54.1898 18.8369 54.0205C18.6742 53.848 18.443 53.7617 18.1436 53.7617ZM24.252 54.04C24.0599 54.014 23.8906 54.001 23.7441 54.001C23.2103 54.001 22.8604 54.1816 22.6943 54.543V58H21.2832V52.7168H22.6162L22.6553 53.3467C22.9385 52.8617 23.3307 52.6191 23.832 52.6191C23.9883 52.6191 24.1348 52.6403 24.2715 52.6826L24.252 54.04ZM27.001 56.2764L27.9824 52.7168H29.457L27.6748 58H26.3271L24.5449 52.7168H26.0195L27.001 56.2764ZM31.5713 58H30.1553V52.7168H31.5713V58ZM30.0723 51.3496C30.0723 51.138 30.1423 50.9639 30.2822 50.8271C30.4255 50.6904 30.6191 50.6221 30.8633 50.6221C31.1042 50.6221 31.2962 50.6904 31.4395 50.8271C31.5827 50.9639 31.6543 51.138 31.6543 51.3496C31.6543 51.5645 31.5811 51.7402 31.4346 51.877C31.2913 52.0137 31.1009 52.082 30.8633 52.082C30.6257 52.082 30.4336 52.0137 30.2871 51.877C30.1439 51.7402 30.0723 51.5645 30.0723 51.3496ZM34.9355 56.96C35.196 56.96 35.4076 56.8883 35.5703 56.7451C35.7331 56.6019 35.8177 56.4115 35.8242 56.1738H37.1475C37.1442 56.5319 37.0465 56.8607 36.8545 57.1602C36.6624 57.4564 36.3988 57.6875 36.0635 57.8535C35.7314 58.0163 35.3636 58.0977 34.96 58.0977C34.2048 58.0977 33.609 57.8584 33.1729 57.3799C32.7367 56.8981 32.5186 56.234 32.5186 55.3877V55.2949C32.5186 54.4811 32.735 53.8317 33.168 53.3467C33.6009 52.8617 34.195 52.6191 34.9502 52.6191C35.611 52.6191 36.14 52.8079 36.5371 53.1855C36.9375 53.5599 37.141 54.0596 37.1475 54.6846H35.8242C35.8177 54.4111 35.7331 54.1898 35.5703 54.0205C35.4076 53.848 35.1927 53.7617 34.9258 53.7617C34.597 53.7617 34.348 53.8822 34.1787 54.123C34.0127 54.3607 33.9297 54.748 33.9297 55.2852V55.4316C33.9297 55.9753 34.0127 56.3659 34.1787 56.6035C34.3447 56.8411 34.597 56.96 34.9355 56.96ZM40.3848 58.0977C39.61 58.0977 38.9785 57.86 38.4902 57.3848C38.0052 56.9095 37.7627 56.2764 37.7627 55.4854V55.3486C37.7627 54.818 37.8652 54.3444 38.0703 53.9277C38.2754 53.5078 38.5651 53.1855 38.9395 52.9609C39.3171 52.7331 39.7467 52.6191 40.2285 52.6191C40.9512 52.6191 41.5192 52.847 41.9326 53.3027C42.3493 53.7585 42.5576 54.4046 42.5576 55.2412V55.8174H39.1934C39.2389 56.1624 39.3757 56.4391 39.6035 56.6475C39.8346 56.8558 40.126 56.96 40.4775 56.96C41.0212 56.96 41.446 56.763 41.752 56.3691L42.4453 57.1455C42.2337 57.445 41.9473 57.6794 41.5859 57.8486C41.2246 58.0146 40.8242 58.0977 40.3848 58.0977ZM40.2236 53.7617C39.9437 53.7617 39.7158 53.8561 39.54 54.0449C39.3675 54.2337 39.2568 54.5039 39.208 54.8555H41.1709V54.7432C41.1644 54.4307 41.0798 54.1898 40.917 54.0205C40.7542 53.848 40.5231 53.7617 40.2236 53.7617Z" fill="white"/>
<rect x="4" width="45" height="45" rx="10" fill="#0F2B55"/>
<path d="M35.7 15.75H32.25V12.875C32.25 11.2937 31.215 10 29.95 10H23.05C21.785 10 20.75 11.2937 20.75 12.875V15.75H17.3C16.035 15.75 15 17.0437 15 18.625V33H38V18.625C38 17.0437 36.965 15.75 35.7 15.75ZM23.05 12.875H29.95V15.75H23.05V12.875ZM35.7 30.125H17.3V25.8125H19.6V27.25H21.9V25.8125H31.1V27.25H33.4V25.8125H35.7V30.125ZM35.7 22.9375H33.4V21.5H31.1V22.9375H21.9V21.5H19.6V22.9375H17.3V18.625H35.7V22.9375Z" fill="white"/>
</g>
<defs>
<filter id="filter0_d" x="0" y="0" width="53" height="66.0977" filterUnits="userSpaceOnUse" color-interpolation-filters="sRGB">
<feFlood flood-opacity="0" result="BackgroundImageFix"/>
<feColorMatrix in="SourceAlpha" type="matrix" values="0 0 0 0 0 0 0 0 0 0 0 0 0 0 0 0 0 0 127 0"/>
<feOffset dy="4"/>
<feGaussianBlur stdDeviation="2"/>
<feColorMatrix type="matrix" values="0 0 0 0 0 0 0 0 0 0 0 0 0 0 0 0 0 0 0.25 0"/>
<feBlend mode="normal" in2="BackgroundImageFix" result="effect1_dropShadow"/>
<feBlend mode="normal" in="SourceGraphic" in2="effect1_dropShadow" result="shape"/>
</filter>
</defs>
</svg>
