<svg width="263" height="16" viewBox="0 0 263 16" fill="none" xmlns="http://www.w3.org/2000/svg">
<path d="M0 8H111" stroke="#F9F9F9" stroke-opacity="0.8"/>
<path d="M143 8L263 8" stroke="#F9F9F9" stroke-opacity="0.8"/>
<path d="M127.254 8.2832C127.254 9.25846 127.085 10.1152 126.748 10.8535C126.411 11.5872 125.928 12.1523 125.299 12.5488C124.674 12.9408 123.954 13.1367 123.139 13.1367C122.332 13.1367 121.612 12.9408 120.979 12.5488C120.35 12.1523 119.862 11.5895 119.516 10.8604C119.174 10.1312 119.001 9.29036 118.996 8.33789V7.77734C118.996 6.80664 119.167 5.94987 119.509 5.20703C119.855 4.46419 120.34 3.89681 120.965 3.50488C121.594 3.1084 122.314 2.91016 123.125 2.91016C123.936 2.91016 124.654 3.10612 125.278 3.49805C125.907 3.88542 126.393 4.44596 126.734 5.17969C127.076 5.90885 127.249 6.75879 127.254 7.72949V8.2832ZM125.524 7.76367C125.524 6.66081 125.315 5.81543 124.896 5.22754C124.481 4.63965 123.891 4.3457 123.125 4.3457C122.378 4.3457 121.792 4.63965 121.368 5.22754C120.949 5.81087 120.735 6.63802 120.726 7.70898V8.2832C120.726 9.37695 120.938 10.2223 121.361 10.8193C121.79 11.4163 122.382 11.7148 123.139 11.7148C123.904 11.7148 124.492 11.4232 124.902 10.8398C125.317 10.2565 125.524 9.4043 125.524 8.2832V7.76367ZM132.634 9.16504H130.706V13H128.977V3.04688H132.477C133.625 3.04688 134.511 3.30436 135.136 3.81934C135.76 4.33431 136.072 5.07943 136.072 6.05469C136.072 6.72005 135.91 7.27832 135.587 7.72949C135.268 8.17611 134.821 8.52018 134.247 8.76172L136.482 12.9111V13H134.63L132.634 9.16504ZM130.706 7.77734H132.483C133.067 7.77734 133.522 7.63151 133.851 7.33984C134.179 7.04362 134.343 6.6403 134.343 6.12988C134.343 5.59668 134.19 5.18424 133.885 4.89258C133.584 4.60091 133.133 4.45052 132.531 4.44141H130.706V7.77734Z" fill="#F5F5F5"/>
</svg>
