<svg width="110" height="20" viewBox="0 0 110 20" fill="none" xmlns="http://www.w3.org/2000/svg">
<rect x="0.5" y="0.5" width="109" height="19" rx="7.5" fill="#F14135" stroke="#F14135"/>
<path d="M43.8281 12.8926C43.5195 13.2949 43.0918 13.5996 42.5449 13.8066C41.998 14.0137 41.377 14.1172 40.6816 14.1172C39.9668 14.1172 39.334 13.9551 38.7832 13.6309C38.2324 13.3066 37.8066 12.8438 37.5059 12.2422C37.209 11.6367 37.0547 10.9316 37.043 10.127V9.45898C37.043 8.16992 37.3516 7.16406 37.9688 6.44141C38.5859 5.71484 39.4473 5.35156 40.5527 5.35156C41.502 5.35156 42.2559 5.58594 42.8145 6.05469C43.373 6.52344 43.709 7.19922 43.8223 8.08203H42.3691C42.2051 7.05469 41.6094 6.54102 40.582 6.54102C39.918 6.54102 39.4121 6.78125 39.0645 7.26172C38.7207 7.73828 38.543 8.43945 38.5312 9.36523V10.0215C38.5312 10.9434 38.7246 11.6602 39.1113 12.1719C39.502 12.6797 40.043 12.9336 40.7344 12.9336C41.4922 12.9336 42.0312 12.7617 42.3516 12.418V10.748H40.5938V9.62305H43.8281V12.8926ZM45.0527 10.7715C45.0527 10.1504 45.1758 9.5918 45.4219 9.0957C45.668 8.5957 46.0137 8.21289 46.459 7.94727C46.9043 7.67773 47.416 7.54297 47.9941 7.54297C48.8496 7.54297 49.543 7.81836 50.0742 8.36914C50.6094 8.91992 50.8984 9.65039 50.9414 10.5605L50.9473 10.8945C50.9473 11.5195 50.8262 12.0781 50.584 12.5703C50.3457 13.0625 50.002 13.4434 49.5527 13.7129C49.1074 13.9824 48.5918 14.1172 48.0059 14.1172C47.1113 14.1172 46.3945 13.8203 45.8555 13.2266C45.3203 12.6289 45.0527 11.834 45.0527 10.8418V10.7715ZM46.4766 10.8945C46.4766 11.5469 46.6113 12.0586 46.8809 12.4297C47.1504 12.7969 47.5254 12.9805 48.0059 12.9805C48.4863 12.9805 48.8594 12.793 49.125 12.418C49.3945 12.043 49.5293 11.4941 49.5293 10.7715C49.5293 10.1309 49.3906 9.62305 49.1133 9.24805C48.8398 8.87305 48.4668 8.68555 47.9941 8.68555C47.5293 8.68555 47.1602 8.87109 46.8867 9.24219C46.6133 9.60938 46.4766 10.1602 46.4766 10.8945ZM51.8848 10.7715C51.8848 10.1504 52.0078 9.5918 52.2539 9.0957C52.5 8.5957 52.8457 8.21289 53.291 7.94727C53.7363 7.67773 54.248 7.54297 54.8262 7.54297C55.6816 7.54297 56.375 7.81836 56.9062 8.36914C57.4414 8.91992 57.7305 9.65039 57.7734 10.5605L57.7793 10.8945C57.7793 11.5195 57.6582 12.0781 57.416 12.5703C57.1777 13.0625 56.834 13.4434 56.3848 13.7129C55.9395 13.9824 55.4238 14.1172 54.8379 14.1172C53.9434 14.1172 53.2266 13.8203 52.6875 13.2266C52.1523 12.6289 51.8848 11.834 51.8848 10.8418V10.7715ZM53.3086 10.8945C53.3086 11.5469 53.4434 12.0586 53.7129 12.4297C53.9824 12.7969 54.3574 12.9805 54.8379 12.9805C55.3184 12.9805 55.6914 12.793 55.957 12.418C56.2266 12.043 56.3613 11.4941 56.3613 10.7715C56.3613 10.1309 56.2227 9.62305 55.9453 9.24805C55.6719 8.87305 55.2988 8.68555 54.8262 8.68555C54.3613 8.68555 53.9922 8.87109 53.7188 9.24219C53.4453 9.60938 53.3086 10.1602 53.3086 10.8945ZM58.7344 10.7832C58.7344 9.79883 58.9648 9.01367 59.4258 8.42773C59.8906 7.83789 60.5059 7.54297 61.2715 7.54297C61.9941 7.54297 62.5625 7.79492 62.9766 8.29883L63.041 7.66016H64.3242V13.8066C64.3242 14.6387 64.0645 15.2949 63.5449 15.7754C63.0293 16.2559 62.332 16.4961 61.4531 16.4961C60.9883 16.4961 60.5332 16.3984 60.0879 16.2031C59.6465 16.0117 59.3105 15.7598 59.0801 15.4473L59.7539 14.5918C60.1914 15.1113 60.7305 15.3711 61.3711 15.3711C61.8438 15.3711 62.2168 15.2422 62.4902 14.9844C62.7637 14.7305 62.9004 14.3555 62.9004 13.8594V13.4316C62.4902 13.8887 61.9434 14.1172 61.2598 14.1172C60.5176 14.1172 59.9102 13.8223 59.4375 13.2324C58.9688 12.6426 58.7344 11.8262 58.7344 10.7832ZM60.1523 10.9062C60.1523 11.543 60.2812 12.0449 60.5391 12.4121C60.8008 12.7754 61.1621 12.957 61.623 12.957C62.1973 12.957 62.623 12.7109 62.9004 12.2188V9.42969C62.6309 8.94922 62.209 8.70898 61.6348 8.70898C61.166 8.70898 60.8008 8.89453 60.5391 9.26562C60.2812 9.63672 60.1523 10.1836 60.1523 10.9062ZM67.3066 14H65.8828V5H67.3066V14ZM71.6543 14.1172C70.752 14.1172 70.0195 13.834 69.457 13.2676C68.8984 12.6973 68.6191 11.9395 68.6191 10.9941V10.8184C68.6191 10.1855 68.7402 9.62109 68.9824 9.125C69.2285 8.625 69.5723 8.23633 70.0137 7.95898C70.4551 7.68164 70.9473 7.54297 71.4902 7.54297C72.3535 7.54297 73.0195 7.81836 73.4883 8.36914C73.9609 8.91992 74.1973 9.69922 74.1973 10.707V11.2812H70.0547C70.0977 11.8047 70.2715 12.2188 70.5762 12.5234C70.8848 12.8281 71.2715 12.9805 71.7363 12.9805C72.3887 12.9805 72.9199 12.7168 73.3301 12.1895L74.0977 12.9219C73.8438 13.3008 73.5039 13.5957 73.0781 13.8066C72.6562 14.0137 72.1816 14.1172 71.6543 14.1172ZM71.4844 8.68555C71.0938 8.68555 70.7773 8.82227 70.5352 9.0957C70.2969 9.36914 70.1445 9.75 70.0781 10.2383H72.791V10.1328C72.7598 9.65625 72.6328 9.29688 72.4102 9.05469C72.1875 8.80859 71.8789 8.68555 71.4844 8.68555Z" fill="white"/>
</svg>
