<svg width="110" height="20" viewBox="0 0 110 20" fill="none" xmlns="http://www.w3.org/2000/svg">
<rect x="0.5" y="0.5" width="109" height="19" rx="7.5" fill="#2285E1" stroke="#2A6DD2"/>
<path d="M35.127 10.3848H31.6934V14H30.2109V5.46875H35.6309V6.66406H31.6934V9.20117H35.127V10.3848ZM40.2598 14C40.1973 13.8789 40.1426 13.6816 40.0957 13.4082C39.6426 13.8809 39.0879 14.1172 38.4316 14.1172C37.7949 14.1172 37.2754 13.9355 36.873 13.5723C36.4707 13.209 36.2695 12.7598 36.2695 12.2246C36.2695 11.5488 36.5195 11.0312 37.0195 10.6719C37.5234 10.3086 38.2422 10.127 39.1758 10.127H40.0488V9.71094C40.0488 9.38281 39.957 9.12109 39.7734 8.92578C39.5898 8.72656 39.3105 8.62695 38.9355 8.62695C38.6113 8.62695 38.3457 8.70898 38.1387 8.87305C37.9316 9.0332 37.8281 9.23828 37.8281 9.48828H36.4043C36.4043 9.14062 36.5195 8.81641 36.75 8.51562C36.9805 8.21094 37.293 7.97266 37.6875 7.80078C38.0859 7.62891 38.5293 7.54297 39.0176 7.54297C39.7598 7.54297 40.3516 7.73047 40.793 8.10547C41.2344 8.47656 41.4609 9 41.4727 9.67578V12.5352C41.4727 13.1055 41.5527 13.5605 41.7129 13.9004V14H40.2598ZM38.6953 12.9746C38.9766 12.9746 39.2402 12.9062 39.4863 12.7695C39.7363 12.6328 39.9238 12.4492 40.0488 12.2188V11.0234H39.2812C38.7539 11.0234 38.3574 11.1152 38.0918 11.2988C37.8262 11.4824 37.6934 11.7422 37.6934 12.0781C37.6934 12.3516 37.7832 12.5703 37.9629 12.7344C38.1465 12.8945 38.3906 12.9746 38.6953 12.9746ZM45.5684 12.9805C45.9238 12.9805 46.2188 12.877 46.4531 12.6699C46.6875 12.4629 46.8125 12.207 46.8281 11.9023H48.1699C48.1543 12.2969 48.0312 12.666 47.8008 13.0098C47.5703 13.3496 47.2578 13.6191 46.8633 13.8184C46.4688 14.0176 46.043 14.1172 45.5859 14.1172C44.6992 14.1172 43.9961 13.8301 43.4766 13.2559C42.957 12.6816 42.6973 11.8887 42.6973 10.877V10.7305C42.6973 9.76562 42.9551 8.99414 43.4707 8.41602C43.9863 7.83398 44.6895 7.54297 45.5801 7.54297C46.334 7.54297 46.9473 7.76367 47.4199 8.20508C47.8965 8.64258 48.1465 9.21875 48.1699 9.93359H46.8281C46.8125 9.57031 46.6875 9.27148 46.4531 9.03711C46.2227 8.80273 45.9277 8.68555 45.5684 8.68555C45.1074 8.68555 44.752 8.85352 44.502 9.18945C44.252 9.52148 44.125 10.0273 44.1211 10.707V10.9355C44.1211 11.623 44.2441 12.1367 44.4902 12.4766C44.7402 12.8125 45.0996 12.9805 45.5684 12.9805ZM52.0371 14.1172C51.1348 14.1172 50.4023 13.834 49.8398 13.2676C49.2812 12.6973 49.002 11.9395 49.002 10.9941V10.8184C49.002 10.1855 49.123 9.62109 49.3652 9.125C49.6113 8.625 49.9551 8.23633 50.3965 7.95898C50.8379 7.68164 51.3301 7.54297 51.873 7.54297C52.7363 7.54297 53.4023 7.81836 53.8711 8.36914C54.3438 8.91992 54.5801 9.69922 54.5801 10.707V11.2812H50.4375C50.4805 11.8047 50.6543 12.2188 50.959 12.5234C51.2676 12.8281 51.6543 12.9805 52.1191 12.9805C52.7715 12.9805 53.3027 12.7168 53.7129 12.1895L54.4805 12.9219C54.2266 13.3008 53.8867 13.5957 53.4609 13.8066C53.0391 14.0137 52.5645 14.1172 52.0371 14.1172ZM51.8672 8.68555C51.4766 8.68555 51.1602 8.82227 50.918 9.0957C50.6797 9.36914 50.5273 9.75 50.4609 10.2383H53.1738V10.1328C53.1426 9.65625 53.0156 9.29688 52.793 9.05469C52.5703 8.80859 52.2617 8.68555 51.8672 8.68555ZM61.2539 10.8945C61.2539 11.8789 61.0332 12.6621 60.5918 13.2441C60.1543 13.8262 59.5508 14.1172 58.7812 14.1172C58.0391 14.1172 57.4609 13.8496 57.0469 13.3145L56.9766 14H55.6875V5H57.1113V8.26953C57.5215 7.78516 58.0742 7.54297 58.7695 7.54297C59.543 7.54297 60.1504 7.83008 60.5918 8.4043C61.0332 8.97852 61.2539 9.78125 61.2539 10.8125V10.8945ZM59.8301 10.7715C59.8301 10.084 59.709 9.56836 59.4668 9.22461C59.2246 8.88086 58.873 8.70898 58.4121 8.70898C57.7949 8.70898 57.3613 8.97852 57.1113 9.51758V12.1309C57.3652 12.6816 57.8027 12.957 58.4238 12.957C58.8691 12.957 59.2129 12.791 59.4551 12.459C59.6973 12.127 59.8223 11.625 59.8301 10.9531V10.7715ZM62.1855 10.7715C62.1855 10.1504 62.3086 9.5918 62.5547 9.0957C62.8008 8.5957 63.1465 8.21289 63.5918 7.94727C64.0371 7.67773 64.5488 7.54297 65.127 7.54297C65.9824 7.54297 66.6758 7.81836 67.207 8.36914C67.7422 8.91992 68.0312 9.65039 68.0742 10.5605L68.0801 10.8945C68.0801 11.5195 67.959 12.0781 67.7168 12.5703C67.4785 13.0625 67.1348 13.4434 66.6855 13.7129C66.2402 13.9824 65.7246 14.1172 65.1387 14.1172C64.2441 14.1172 63.5273 13.8203 62.9883 13.2266C62.4531 12.6289 62.1855 11.834 62.1855 10.8418V10.7715ZM63.6094 10.8945C63.6094 11.5469 63.7441 12.0586 64.0137 12.4297C64.2832 12.7969 64.6582 12.9805 65.1387 12.9805C65.6191 12.9805 65.9922 12.793 66.2578 12.418C66.5273 12.043 66.6621 11.4941 66.6621 10.7715C66.6621 10.1309 66.5234 9.62305 66.2461 9.24805C65.9727 8.87305 65.5996 8.68555 65.127 8.68555C64.6621 8.68555 64.293 8.87109 64.0195 9.24219C63.7461 9.60938 63.6094 10.1602 63.6094 10.8945ZM69.0176 10.7715C69.0176 10.1504 69.1406 9.5918 69.3867 9.0957C69.6328 8.5957 69.9785 8.21289 70.4238 7.94727C70.8691 7.67773 71.3809 7.54297 71.959 7.54297C72.8145 7.54297 73.5078 7.81836 74.0391 8.36914C74.5742 8.91992 74.8633 9.65039 74.9062 10.5605L74.9121 10.8945C74.9121 11.5195 74.791 12.0781 74.5488 12.5703C74.3105 13.0625 73.9668 13.4434 73.5176 13.7129C73.0723 13.9824 72.5566 14.1172 71.9707 14.1172C71.0762 14.1172 70.3594 13.8203 69.8203 13.2266C69.2852 12.6289 69.0176 11.834 69.0176 10.8418V10.7715ZM70.4414 10.8945C70.4414 11.5469 70.5762 12.0586 70.8457 12.4297C71.1152 12.7969 71.4902 12.9805 71.9707 12.9805C72.4512 12.9805 72.8242 12.793 73.0898 12.418C73.3594 12.043 73.4941 11.4941 73.4941 10.7715C73.4941 10.1309 73.3555 9.62305 73.0781 9.24805C72.8047 8.87305 72.4316 8.68555 71.959 8.68555C71.4941 8.68555 71.125 8.87109 70.8516 9.24219C70.5781 9.60938 70.4414 10.1602 70.4414 10.8945ZM78.1758 11.2812L77.543 11.9316V14H76.1191V5H77.543V10.1914L77.9883 9.63477L79.7402 7.66016H81.4512L79.0957 10.3027L81.7031 14H80.0566L78.1758 11.2812Z" fill="white"/>
</svg>
